<?xml version="1.0" encoding="utf-8"?>
<svg xmlns="http://www.w3.org/2000/svg" xmlns:xlink="http://www.w3.org/1999/xlink" width="600" height="400" viewBox="0 0 2400 1600">
<defs>
  <clipPath id="clip460">
    <rect x="0" y="0" width="2400" height="1600"/>
  </clipPath>
</defs>
<path clip-path="url(#clip460)" d="
M0 1600 L2400 1600 L2400 0 L0 0  Z
  " fill="#ffffff" fill-rule="evenodd" fill-opacity="1"/>
<defs>
  <clipPath id="clip461">
    <rect x="480" y="0" width="1681" height="1600"/>
  </clipPath>
</defs>
<path clip-path="url(#clip460)" d="
M221.618 1423.18 L2352.76 1423.18 L2352.76 47.2441 L221.618 47.2441  Z
  " fill="#ffffff" fill-rule="evenodd" fill-opacity="1"/>
<defs>
  <clipPath id="clip462">
    <rect x="221" y="47" width="2132" height="1377"/>
  </clipPath>
</defs>
<polyline clip-path="url(#clip462)" style="stroke:#000000; stroke-linecap:butt; stroke-linejoin:round; stroke-width:2; stroke-opacity:0.1; fill:none" points="
  425.541,1423.18 425.541,47.2441 
  "/>
<polyline clip-path="url(#clip462)" style="stroke:#000000; stroke-linecap:butt; stroke-linejoin:round; stroke-width:2; stroke-opacity:0.1; fill:none" points="
  712.756,1423.18 712.756,47.2441 
  "/>
<polyline clip-path="url(#clip462)" style="stroke:#000000; stroke-linecap:butt; stroke-linejoin:round; stroke-width:2; stroke-opacity:0.1; fill:none" points="
  999.972,1423.18 999.972,47.2441 
  "/>
<polyline clip-path="url(#clip462)" style="stroke:#000000; stroke-linecap:butt; stroke-linejoin:round; stroke-width:2; stroke-opacity:0.1; fill:none" points="
  1287.19,1423.18 1287.19,47.2441 
  "/>
<polyline clip-path="url(#clip462)" style="stroke:#000000; stroke-linecap:butt; stroke-linejoin:round; stroke-width:2; stroke-opacity:0.1; fill:none" points="
  1574.4,1423.18 1574.4,47.2441 
  "/>
<polyline clip-path="url(#clip462)" style="stroke:#000000; stroke-linecap:butt; stroke-linejoin:round; stroke-width:2; stroke-opacity:0.1; fill:none" points="
  1861.62,1423.18 1861.62,47.2441 
  "/>
<polyline clip-path="url(#clip462)" style="stroke:#000000; stroke-linecap:butt; stroke-linejoin:round; stroke-width:2; stroke-opacity:0.1; fill:none" points="
  2148.83,1423.18 2148.83,47.2441 
  "/>
<polyline clip-path="url(#clip460)" style="stroke:#000000; stroke-linecap:butt; stroke-linejoin:round; stroke-width:4; stroke-opacity:1; fill:none" points="
  221.618,1423.18 2352.76,1423.18 
  "/>
<polyline clip-path="url(#clip460)" style="stroke:#000000; stroke-linecap:butt; stroke-linejoin:round; stroke-width:4; stroke-opacity:1; fill:none" points="
  425.541,1423.18 425.541,1404.28 
  "/>
<polyline clip-path="url(#clip460)" style="stroke:#000000; stroke-linecap:butt; stroke-linejoin:round; stroke-width:4; stroke-opacity:1; fill:none" points="
  712.756,1423.18 712.756,1404.28 
  "/>
<polyline clip-path="url(#clip460)" style="stroke:#000000; stroke-linecap:butt; stroke-linejoin:round; stroke-width:4; stroke-opacity:1; fill:none" points="
  999.972,1423.18 999.972,1404.28 
  "/>
<polyline clip-path="url(#clip460)" style="stroke:#000000; stroke-linecap:butt; stroke-linejoin:round; stroke-width:4; stroke-opacity:1; fill:none" points="
  1287.19,1423.18 1287.19,1404.28 
  "/>
<polyline clip-path="url(#clip460)" style="stroke:#000000; stroke-linecap:butt; stroke-linejoin:round; stroke-width:4; stroke-opacity:1; fill:none" points="
  1574.4,1423.18 1574.4,1404.28 
  "/>
<polyline clip-path="url(#clip460)" style="stroke:#000000; stroke-linecap:butt; stroke-linejoin:round; stroke-width:4; stroke-opacity:1; fill:none" points="
  1861.62,1423.18 1861.62,1404.28 
  "/>
<polyline clip-path="url(#clip460)" style="stroke:#000000; stroke-linecap:butt; stroke-linejoin:round; stroke-width:4; stroke-opacity:1; fill:none" points="
  2148.83,1423.18 2148.83,1404.28 
  "/>
<path clip-path="url(#clip460)" d="M420.194 1481.64 L436.513 1481.64 L436.513 1485.58 L414.569 1485.58 L414.569 1481.64 Q417.231 1478.89 421.814 1474.26 Q426.421 1469.61 427.601 1468.27 Q429.847 1465.74 430.726 1464.01 Q431.629 1462.25 431.629 1460.56 Q431.629 1457.8 429.685 1456.07 Q427.763 1454.33 424.662 1454.33 Q422.462 1454.33 420.009 1455.09 Q417.578 1455.86 414.8 1457.41 L414.8 1452.69 Q417.625 1451.55 420.078 1450.97 Q422.532 1450.39 424.569 1450.39 Q429.939 1450.39 433.134 1453.08 Q436.328 1455.77 436.328 1460.26 Q436.328 1462.39 435.518 1464.31 Q434.731 1466.2 432.624 1468.8 Q432.046 1469.47 428.944 1472.69 Q425.842 1475.88 420.194 1481.64 Z" fill="#000000" fill-rule="evenodd" fill-opacity="1" /><path clip-path="url(#clip460)" d="M715.766 1455.09 L703.96 1473.54 L715.766 1473.54 L715.766 1455.09 M714.539 1451.02 L720.418 1451.02 L720.418 1473.54 L725.349 1473.54 L725.349 1477.43 L720.418 1477.43 L720.418 1485.58 L715.766 1485.58 L715.766 1477.43 L700.164 1477.43 L700.164 1472.92 L714.539 1451.02 Z" fill="#000000" fill-rule="evenodd" fill-opacity="1" /><path clip-path="url(#clip460)" d="M1000.38 1466.44 Q997.229 1466.44 995.377 1468.59 Q993.548 1470.74 993.548 1474.49 Q993.548 1478.22 995.377 1480.39 Q997.229 1482.55 1000.38 1482.55 Q1003.53 1482.55 1005.35 1480.39 Q1007.21 1478.22 1007.21 1474.49 Q1007.21 1470.74 1005.35 1468.59 Q1003.53 1466.44 1000.38 1466.44 M1009.66 1451.78 L1009.66 1456.04 Q1007.9 1455.21 1006.09 1454.77 Q1004.31 1454.33 1002.55 1454.33 Q997.923 1454.33 995.469 1457.45 Q993.039 1460.58 992.692 1466.9 Q994.057 1464.89 996.118 1463.82 Q998.178 1462.73 1000.65 1462.73 Q1005.86 1462.73 1008.87 1465.9 Q1011.9 1469.05 1011.9 1474.49 Q1011.9 1479.82 1008.76 1483.03 Q1005.61 1486.25 1000.38 1486.25 Q994.382 1486.25 991.21 1481.67 Q988.039 1477.06 988.039 1468.33 Q988.039 1460.14 991.928 1455.28 Q995.817 1450.39 1002.37 1450.39 Q1004.13 1450.39 1005.91 1450.74 Q1007.71 1451.09 1009.66 1451.78 Z" fill="#000000" fill-rule="evenodd" fill-opacity="1" /><path clip-path="url(#clip460)" d="M1287.19 1469.17 Q1283.85 1469.17 1281.93 1470.95 Q1280.03 1472.73 1280.03 1475.86 Q1280.03 1478.98 1281.93 1480.77 Q1283.85 1482.55 1287.19 1482.55 Q1290.52 1482.55 1292.44 1480.77 Q1294.36 1478.96 1294.36 1475.86 Q1294.36 1472.73 1292.44 1470.95 Q1290.54 1469.17 1287.19 1469.17 M1282.51 1467.18 Q1279.5 1466.44 1277.81 1464.38 Q1276.15 1462.32 1276.15 1459.35 Q1276.15 1455.21 1279.09 1452.8 Q1282.05 1450.39 1287.19 1450.39 Q1292.35 1450.39 1295.29 1452.8 Q1298.23 1455.21 1298.23 1459.35 Q1298.23 1462.32 1296.54 1464.38 Q1294.87 1466.44 1291.89 1467.18 Q1295.27 1467.96 1297.14 1470.26 Q1299.04 1472.55 1299.04 1475.86 Q1299.04 1480.88 1295.96 1483.57 Q1292.9 1486.25 1287.19 1486.25 Q1281.47 1486.25 1278.39 1483.57 Q1275.34 1480.88 1275.34 1475.86 Q1275.34 1472.55 1277.23 1470.26 Q1279.13 1467.96 1282.51 1467.18 M1280.8 1459.79 Q1280.8 1462.48 1282.46 1463.98 Q1284.15 1465.49 1287.19 1465.49 Q1290.2 1465.49 1291.89 1463.98 Q1293.6 1462.48 1293.6 1459.79 Q1293.6 1457.11 1291.89 1455.6 Q1290.2 1454.1 1287.19 1454.1 Q1284.15 1454.1 1282.46 1455.6 Q1280.8 1457.11 1280.8 1459.79 Z" fill="#000000" fill-rule="evenodd" fill-opacity="1" /><path clip-path="url(#clip460)" d="M1549.09 1481.64 L1556.73 1481.64 L1556.73 1455.28 L1548.42 1456.95 L1548.42 1452.69 L1556.68 1451.02 L1561.36 1451.02 L1561.36 1481.64 L1569 1481.64 L1569 1485.58 L1549.09 1485.58 L1549.09 1481.64 Z" fill="#000000" fill-rule="evenodd" fill-opacity="1" /><path clip-path="url(#clip460)" d="M1588.44 1454.1 Q1584.83 1454.1 1583 1457.66 Q1581.2 1461.2 1581.2 1468.33 Q1581.2 1475.44 1583 1479.01 Q1584.83 1482.55 1588.44 1482.55 Q1592.08 1482.55 1593.88 1479.01 Q1595.71 1475.44 1595.71 1468.33 Q1595.71 1461.2 1593.88 1457.66 Q1592.08 1454.1 1588.44 1454.1 M1588.44 1450.39 Q1594.25 1450.39 1597.31 1455 Q1600.39 1459.58 1600.39 1468.33 Q1600.39 1477.06 1597.31 1481.67 Q1594.25 1486.25 1588.44 1486.25 Q1582.63 1486.25 1579.55 1481.67 Q1576.5 1477.06 1576.5 1468.33 Q1576.5 1459.58 1579.55 1455 Q1582.63 1450.39 1588.44 1450.39 Z" fill="#000000" fill-rule="evenodd" fill-opacity="1" /><path clip-path="url(#clip460)" d="M1837.1 1481.64 L1844.74 1481.64 L1844.74 1455.28 L1836.43 1456.95 L1836.43 1452.69 L1844.7 1451.02 L1849.37 1451.02 L1849.37 1481.64 L1857.01 1481.64 L1857.01 1485.58 L1837.1 1485.58 L1837.1 1481.64 Z" fill="#000000" fill-rule="evenodd" fill-opacity="1" /><path clip-path="url(#clip460)" d="M1870.48 1481.64 L1886.8 1481.64 L1886.8 1485.58 L1864.86 1485.58 L1864.86 1481.64 Q1867.52 1478.89 1872.1 1474.26 Q1876.71 1469.61 1877.89 1468.27 Q1880.14 1465.74 1881.02 1464.01 Q1881.92 1462.25 1881.92 1460.56 Q1881.92 1457.8 1879.97 1456.07 Q1878.05 1454.33 1874.95 1454.33 Q1872.75 1454.33 1870.3 1455.09 Q1867.87 1455.86 1865.09 1457.41 L1865.09 1452.69 Q1867.91 1451.55 1870.37 1450.97 Q1872.82 1450.39 1874.86 1450.39 Q1880.23 1450.39 1883.42 1453.08 Q1886.62 1455.77 1886.62 1460.26 Q1886.62 1462.39 1885.81 1464.31 Q1885.02 1466.2 1882.91 1468.8 Q1882.34 1469.47 1879.23 1472.69 Q1876.13 1475.88 1870.48 1481.64 Z" fill="#000000" fill-rule="evenodd" fill-opacity="1" /><path clip-path="url(#clip460)" d="M2123.28 1481.64 L2130.92 1481.64 L2130.92 1455.28 L2122.61 1456.95 L2122.61 1452.69 L2130.87 1451.02 L2135.55 1451.02 L2135.55 1481.64 L2143.18 1481.64 L2143.18 1485.58 L2123.28 1485.58 L2123.28 1481.64 Z" fill="#000000" fill-rule="evenodd" fill-opacity="1" /><path clip-path="url(#clip460)" d="M2165.48 1455.09 L2153.67 1473.54 L2165.48 1473.54 L2165.48 1455.09 M2164.25 1451.02 L2170.13 1451.02 L2170.13 1473.54 L2175.06 1473.54 L2175.06 1477.43 L2170.13 1477.43 L2170.13 1485.58 L2165.48 1485.58 L2165.48 1477.43 L2149.87 1477.43 L2149.87 1472.92 L2164.25 1451.02 Z" fill="#000000" fill-rule="evenodd" fill-opacity="1" /><path clip-path="url(#clip460)" d="M1116.73 1520.52 L1156.93 1520.52 L1156.93 1525.93 L1140.06 1525.93 L1140.06 1568.04 L1133.6 1568.04 L1133.6 1525.93 L1116.73 1525.93 L1116.73 1520.52 Z" fill="#000000" fill-rule="evenodd" fill-opacity="1" /><path clip-path="url(#clip460)" d="M1173.96 1537.87 Q1172.97 1537.3 1171.79 1537.04 Q1170.65 1536.76 1169.25 1536.76 Q1164.28 1536.76 1161.61 1540 Q1158.97 1543.22 1158.97 1549.27 L1158.97 1568.04 L1153.08 1568.04 L1153.08 1532.4 L1158.97 1532.4 L1158.97 1537.93 Q1160.81 1534.69 1163.77 1533.13 Q1166.73 1531.54 1170.97 1531.54 Q1171.57 1531.54 1172.3 1531.63 Q1173.03 1531.7 1173.93 1531.85 L1173.96 1537.87 Z" fill="#000000" fill-rule="evenodd" fill-opacity="1" /><path clip-path="url(#clip460)" d="M1209.16 1548.76 L1209.16 1551.62 L1182.23 1551.62 Q1182.61 1557.67 1185.86 1560.85 Q1189.14 1564 1194.96 1564 Q1198.34 1564 1201.49 1563.17 Q1204.67 1562.35 1207.79 1560.69 L1207.79 1566.23 Q1204.64 1567.57 1201.33 1568.27 Q1198.02 1568.97 1194.61 1568.97 Q1186.08 1568.97 1181.09 1564 Q1176.12 1559.04 1176.12 1550.57 Q1176.12 1541.82 1180.83 1536.69 Q1185.57 1531.54 1193.6 1531.54 Q1200.79 1531.54 1204.96 1536.18 Q1209.16 1540.8 1209.16 1548.76 M1203.3 1547.04 Q1203.24 1542.23 1200.6 1539.37 Q1197.99 1536.5 1193.66 1536.5 Q1188.76 1536.5 1185.8 1539.27 Q1182.87 1542.04 1182.42 1547.07 L1203.3 1547.04 Z" fill="#000000" fill-rule="evenodd" fill-opacity="1" /><path clip-path="url(#clip460)" d="M1249.26 1548.76 L1249.26 1551.62 L1222.34 1551.62 Q1222.72 1557.67 1225.96 1560.85 Q1229.24 1564 1235.07 1564 Q1238.44 1564 1241.59 1563.17 Q1244.78 1562.35 1247.89 1560.69 L1247.89 1566.23 Q1244.74 1567.57 1241.43 1568.27 Q1238.12 1568.97 1234.72 1568.97 Q1226.19 1568.97 1221.19 1564 Q1216.23 1559.04 1216.23 1550.57 Q1216.23 1541.82 1220.94 1536.69 Q1225.68 1531.54 1233.7 1531.54 Q1240.89 1531.54 1245.06 1536.18 Q1249.26 1540.8 1249.26 1548.76 M1243.41 1547.04 Q1243.34 1542.23 1240.7 1539.37 Q1238.09 1536.5 1233.76 1536.5 Q1228.86 1536.5 1225.9 1539.27 Q1222.97 1542.04 1222.53 1547.07 L1243.41 1547.04 Z" fill="#000000" fill-rule="evenodd" fill-opacity="1" /><path clip-path="url(#clip460)" d="M1303.05 1537.81 L1303.05 1518.52 L1308.91 1518.52 L1308.91 1568.04 L1303.05 1568.04 L1303.05 1562.7 Q1301.21 1565.88 1298.37 1567.44 Q1295.57 1568.97 1291.63 1568.97 Q1285.17 1568.97 1281.09 1563.81 Q1277.05 1558.65 1277.05 1550.25 Q1277.05 1541.85 1281.09 1536.69 Q1285.17 1531.54 1291.63 1531.54 Q1295.57 1531.54 1298.37 1533.1 Q1301.21 1534.62 1303.05 1537.81 M1283.1 1550.25 Q1283.1 1556.71 1285.74 1560.4 Q1288.41 1564.07 1293.06 1564.07 Q1297.71 1564.07 1300.38 1560.4 Q1303.05 1556.71 1303.05 1550.25 Q1303.05 1543.79 1300.38 1540.13 Q1297.71 1536.44 1293.06 1536.44 Q1288.41 1536.44 1285.74 1540.13 Q1283.1 1543.79 1283.1 1550.25 Z" fill="#000000" fill-rule="evenodd" fill-opacity="1" /><path clip-path="url(#clip460)" d="M1351.46 1548.76 L1351.46 1551.62 L1324.54 1551.62 Q1324.92 1557.67 1328.17 1560.85 Q1331.44 1564 1337.27 1564 Q1340.64 1564 1343.79 1563.17 Q1346.98 1562.35 1350.1 1560.69 L1350.1 1566.23 Q1346.95 1567.57 1343.63 1568.27 Q1340.32 1568.97 1336.92 1568.97 Q1328.39 1568.97 1323.39 1564 Q1318.43 1559.04 1318.43 1550.57 Q1318.43 1541.82 1323.14 1536.69 Q1327.88 1531.54 1335.9 1531.54 Q1343.09 1531.54 1347.26 1536.18 Q1351.46 1540.8 1351.46 1548.76 M1345.61 1547.04 Q1345.54 1542.23 1342.9 1539.37 Q1340.29 1536.5 1335.96 1536.5 Q1331.06 1536.5 1328.1 1539.27 Q1325.17 1542.04 1324.73 1547.07 L1345.61 1547.04 Z" fill="#000000" fill-rule="evenodd" fill-opacity="1" /><path clip-path="url(#clip460)" d="M1366.74 1562.7 L1366.74 1581.6 L1360.85 1581.6 L1360.85 1532.4 L1366.74 1532.4 L1366.74 1537.81 Q1368.59 1534.62 1371.39 1533.1 Q1374.22 1531.54 1378.14 1531.54 Q1384.63 1531.54 1388.67 1536.69 Q1392.75 1541.85 1392.75 1550.25 Q1392.75 1558.65 1388.67 1563.81 Q1384.63 1568.97 1378.14 1568.97 Q1374.22 1568.97 1371.39 1567.44 Q1368.59 1565.88 1366.74 1562.7 M1386.67 1550.25 Q1386.67 1543.79 1383.99 1540.13 Q1381.35 1536.44 1376.7 1536.44 Q1372.06 1536.44 1369.38 1540.13 Q1366.74 1543.79 1366.74 1550.25 Q1366.74 1556.71 1369.38 1560.4 Q1372.06 1564.07 1376.7 1564.07 Q1381.35 1564.07 1383.99 1560.4 Q1386.67 1556.71 1386.67 1550.25 Z" fill="#000000" fill-rule="evenodd" fill-opacity="1" /><path clip-path="url(#clip460)" d="M1408.25 1522.27 L1408.25 1532.4 L1420.31 1532.4 L1420.31 1536.95 L1408.25 1536.95 L1408.25 1556.3 Q1408.25 1560.66 1409.42 1561.9 Q1410.63 1563.14 1414.29 1563.14 L1420.31 1563.14 L1420.31 1568.04 L1414.29 1568.04 Q1407.51 1568.04 1404.94 1565.53 Q1402.36 1562.98 1402.36 1556.3 L1402.36 1536.95 L1398.06 1536.95 L1398.06 1532.4 L1402.36 1532.4 L1402.36 1522.27 L1408.25 1522.27 Z" fill="#000000" fill-rule="evenodd" fill-opacity="1" /><path clip-path="url(#clip460)" d="M1457.64 1546.53 L1457.64 1568.04 L1451.79 1568.04 L1451.79 1546.72 Q1451.79 1541.66 1449.81 1539.14 Q1447.84 1536.63 1443.89 1536.63 Q1439.15 1536.63 1436.42 1539.65 Q1433.68 1542.68 1433.68 1547.9 L1433.68 1568.04 L1427.79 1568.04 L1427.79 1518.52 L1433.68 1518.52 L1433.68 1537.93 Q1435.78 1534.72 1438.61 1533.13 Q1441.48 1531.54 1445.2 1531.54 Q1451.34 1531.54 1454.49 1535.36 Q1457.64 1539.14 1457.64 1546.53 Z" fill="#000000" fill-rule="evenodd" fill-opacity="1" /><polyline clip-path="url(#clip462)" style="stroke:#000000; stroke-linecap:butt; stroke-linejoin:round; stroke-width:2; stroke-opacity:0.1; fill:none" points="
  221.618,1172.31 2352.76,1172.31 
  "/>
<polyline clip-path="url(#clip462)" style="stroke:#000000; stroke-linecap:butt; stroke-linejoin:round; stroke-width:2; stroke-opacity:0.1; fill:none" points="
  221.618,485.397 2352.76,485.397 
  "/>
<polyline clip-path="url(#clip460)" style="stroke:#000000; stroke-linecap:butt; stroke-linejoin:round; stroke-width:4; stroke-opacity:1; fill:none" points="
  221.618,1423.18 221.618,47.2441 
  "/>
<polyline clip-path="url(#clip460)" style="stroke:#000000; stroke-linecap:butt; stroke-linejoin:round; stroke-width:4; stroke-opacity:1; fill:none" points="
  221.618,1172.31 240.516,1172.31 
  "/>
<polyline clip-path="url(#clip460)" style="stroke:#000000; stroke-linecap:butt; stroke-linejoin:round; stroke-width:4; stroke-opacity:1; fill:none" points="
  221.618,485.397 240.516,485.397 
  "/>
<path clip-path="url(#clip460)" d="M115.834 1192.1 L123.473 1192.1 L123.473 1165.73 L115.163 1167.4 L115.163 1163.14 L123.427 1161.47 L128.103 1161.47 L128.103 1192.1 L135.742 1192.1 L135.742 1196.03 L115.834 1196.03 L115.834 1192.1 Z" fill="#000000" fill-rule="evenodd" fill-opacity="1" /><path clip-path="url(#clip460)" d="M155.186 1164.55 Q151.575 1164.55 149.746 1168.12 Q147.941 1171.66 147.941 1178.79 Q147.941 1185.89 149.746 1189.46 Q151.575 1193 155.186 1193 Q158.82 1193 160.626 1189.46 Q162.454 1185.89 162.454 1178.79 Q162.454 1171.66 160.626 1168.12 Q158.82 1164.55 155.186 1164.55 M155.186 1160.85 Q160.996 1160.85 164.052 1165.45 Q167.13 1170.04 167.13 1178.79 Q167.13 1187.51 164.052 1192.12 Q160.996 1196.7 155.186 1196.7 Q149.376 1196.7 146.297 1192.12 Q143.241 1187.51 143.241 1178.79 Q143.241 1170.04 146.297 1165.45 Q149.376 1160.85 155.186 1160.85 Z" fill="#000000" fill-rule="evenodd" fill-opacity="1" /><path clip-path="url(#clip460)" d="M179.825 1153.48 Q182.553 1154.07 184.076 1155.91 Q185.618 1157.75 185.618 1160.46 Q185.618 1164.62 182.76 1166.89 Q179.901 1169.17 174.635 1169.17 Q172.867 1169.17 170.986 1168.81 Q169.124 1168.47 167.13 1167.78 L167.13 1164.11 Q168.71 1165.03 170.591 1165.5 Q172.472 1165.97 174.522 1165.97 Q178.095 1165.97 179.957 1164.56 Q181.838 1163.15 181.838 1160.46 Q181.838 1157.98 180.089 1156.59 Q178.358 1155.18 175.255 1155.18 L171.983 1155.18 L171.983 1152.05 L175.406 1152.05 Q178.208 1152.05 179.694 1150.94 Q181.18 1149.82 181.18 1147.71 Q181.18 1145.55 179.637 1144.4 Q178.114 1143.23 175.255 1143.23 Q173.694 1143.23 171.907 1143.57 Q170.121 1143.91 167.977 1144.62 L167.977 1141.24 Q170.139 1140.64 172.02 1140.34 Q173.92 1140.04 175.594 1140.04 Q179.92 1140.04 182.44 1142.01 Q184.96 1143.97 184.96 1147.31 Q184.96 1149.65 183.625 1151.26 Q182.289 1152.86 179.825 1153.48 Z" fill="#000000" fill-rule="evenodd" fill-opacity="1" /><path clip-path="url(#clip460)" d="M114.931 505.189 L122.57 505.189 L122.57 478.823 L114.26 480.49 L114.26 476.231 L122.524 474.564 L127.2 474.564 L127.2 505.189 L134.839 505.189 L134.839 509.124 L114.931 509.124 L114.931 505.189 Z" fill="#000000" fill-rule="evenodd" fill-opacity="1" /><path clip-path="url(#clip460)" d="M154.283 477.643 Q150.672 477.643 148.843 481.208 Q147.038 484.749 147.038 491.879 Q147.038 498.985 148.843 502.55 Q150.672 506.092 154.283 506.092 Q157.917 506.092 159.723 502.55 Q161.552 498.985 161.552 491.879 Q161.552 484.749 159.723 481.208 Q157.917 477.643 154.283 477.643 M154.283 473.939 Q160.093 473.939 163.149 478.546 Q166.227 483.129 166.227 491.879 Q166.227 500.606 163.149 505.212 Q160.093 509.795 154.283 509.795 Q148.473 509.795 145.394 505.212 Q142.339 500.606 142.339 491.879 Q142.339 483.129 145.394 478.546 Q148.473 473.939 154.283 473.939 Z" fill="#000000" fill-rule="evenodd" fill-opacity="1" /><path clip-path="url(#clip460)" d="M176.252 466.16 Q173.694 466.16 172.19 467.909 Q170.704 469.658 170.704 472.705 Q170.704 475.733 172.19 477.501 Q173.694 479.25 176.252 479.25 Q178.81 479.25 180.296 477.501 Q181.8 475.733 181.8 472.705 Q181.8 469.658 180.296 467.909 Q178.81 466.16 176.252 466.16 M183.794 454.254 L183.794 457.715 Q182.365 457.038 180.898 456.681 Q179.449 456.323 178.02 456.323 Q174.258 456.323 172.265 458.862 Q170.29 461.401 170.008 466.536 Q171.117 464.9 172.791 464.034 Q174.465 463.151 176.478 463.151 Q180.709 463.151 183.154 465.727 Q185.618 468.285 185.618 472.705 Q185.618 477.031 183.06 479.645 Q180.503 482.259 176.252 482.259 Q171.381 482.259 168.804 478.535 Q166.227 474.793 166.227 467.702 Q166.227 461.044 169.387 457.094 Q172.547 453.126 177.869 453.126 Q179.299 453.126 180.747 453.408 Q182.214 453.69 183.794 454.254 Z" fill="#000000" fill-rule="evenodd" fill-opacity="1" /><path clip-path="url(#clip460)" d="M16.4842 885.697 L16.4842 845.498 L21.895 845.498 L21.895 862.367 L64.0042 862.367 L64.0042 868.828 L21.895 868.828 L21.895 885.697 L16.4842 885.697 Z" fill="#000000" fill-rule="evenodd" fill-opacity="1" /><path clip-path="url(#clip460)" d="M28.3562 841.551 L28.3562 835.695 L64.0042 835.695 L64.0042 841.551 L28.3562 841.551 M14.479 841.551 L14.479 835.695 L21.895 835.695 L21.895 841.551 L14.479 841.551 Z" fill="#000000" fill-rule="evenodd" fill-opacity="1" /><path clip-path="url(#clip460)" d="M35.1993 795.686 Q31.2526 793.49 29.3747 790.434 Q27.4968 787.379 27.4968 783.241 Q27.4968 777.671 31.4117 774.648 Q35.2948 771.624 42.4881 771.624 L64.0042 771.624 L64.0042 777.512 L42.679 777.512 Q37.5546 777.512 35.072 779.326 Q32.5894 781.141 32.5894 784.864 Q32.5894 789.416 35.6131 792.058 Q38.6368 794.699 43.8567 794.699 L64.0042 794.699 L64.0042 800.588 L42.679 800.588 Q37.5228 800.588 35.072 802.402 Q32.5894 804.216 32.5894 808.004 Q32.5894 812.492 35.6449 815.133 Q38.6686 817.775 43.8567 817.775 L64.0042 817.775 L64.0042 823.663 L28.3562 823.663 L28.3562 817.775 L33.8944 817.775 Q30.616 815.77 29.0564 812.969 Q27.4968 810.168 27.4968 806.317 Q27.4968 802.434 29.4702 799.728 Q31.4436 796.991 35.1993 795.686 Z" fill="#000000" fill-rule="evenodd" fill-opacity="1" /><path clip-path="url(#clip460)" d="M44.7161 729.451 L47.5806 729.451 L47.5806 756.378 Q53.6281 755.996 56.8109 752.749 Q59.9619 749.471 59.9619 743.647 Q59.9619 740.273 59.1344 737.122 Q58.3069 733.939 56.6518 730.82 L62.1899 730.82 Q63.5267 733.971 64.227 737.281 Q64.9272 740.591 64.9272 743.997 Q64.9272 752.527 59.9619 757.524 Q54.9967 762.489 46.5303 762.489 Q37.7774 762.489 32.6531 757.778 Q27.4968 753.036 27.4968 745.015 Q27.4968 737.822 32.1438 733.652 Q36.7589 729.451 44.7161 729.451 M42.9973 735.307 Q38.1912 735.371 35.3266 738.013 Q32.4621 740.623 32.4621 744.951 Q32.4621 749.853 35.2312 752.813 Q38.0002 755.741 43.0292 756.187 L42.9973 735.307 Z" fill="#000000" fill-rule="evenodd" fill-opacity="1" /><path clip-path="url(#clip460)" d="M14.5426 685.05 Q21.8632 689.315 29.0246 691.384 Q36.186 693.453 43.5384 693.453 Q50.8908 693.453 58.1159 691.384 Q65.3091 689.283 72.5979 685.05 L72.5979 690.143 Q65.1182 694.917 57.8931 697.304 Q50.668 699.659 43.5384 699.659 Q36.4406 699.659 29.2474 697.304 Q22.0542 694.949 14.5426 690.143 L14.5426 685.05 Z" fill="#000000" fill-rule="evenodd" fill-opacity="1" /><path clip-path="url(#clip460)" d="M42.4881 644.055 L64.0042 644.055 L64.0042 649.911 L42.679 649.911 Q37.6183 649.911 35.1038 651.885 Q32.5894 653.858 32.5894 657.805 Q32.5894 662.547 35.6131 665.285 Q38.6368 668.022 43.8567 668.022 L64.0042 668.022 L64.0042 673.91 L28.3562 673.91 L28.3562 668.022 L33.8944 668.022 Q30.6797 665.921 29.0883 663.089 Q27.4968 660.224 27.4968 656.5 Q27.4968 650.357 31.3163 647.206 Q35.1038 644.055 42.4881 644.055 Z" fill="#000000" fill-rule="evenodd" fill-opacity="1" /><path clip-path="url(#clip460)" d="M29.4065 609.648 L34.9447 609.648 Q33.6716 612.131 33.035 614.805 Q32.3984 617.478 32.3984 620.343 Q32.3984 624.703 33.7352 626.899 Q35.072 629.064 37.7456 629.064 Q39.7826 629.064 40.9603 627.504 Q42.1061 625.945 43.1565 621.234 L43.6021 619.229 Q44.9389 612.99 47.3897 610.38 Q49.8086 607.739 54.1691 607.739 Q59.1344 607.739 62.0308 611.685 Q64.9272 615.6 64.9272 622.475 Q64.9272 625.34 64.3543 628.459 Q63.8132 631.546 62.6992 634.984 L56.6518 634.984 Q58.3387 631.737 59.198 628.586 Q60.0256 625.435 60.0256 622.348 Q60.0256 618.21 58.6251 615.982 Q57.1929 613.754 54.6147 613.754 Q52.2276 613.754 50.9545 615.378 Q49.6813 616.969 48.5037 622.412 L48.0262 624.449 Q46.8804 629.891 44.5251 632.31 Q42.138 634.729 38.0002 634.729 Q32.9713 634.729 30.2341 631.164 Q27.4968 627.6 27.4968 621.043 Q27.4968 617.797 27.9743 614.932 Q28.4517 612.067 29.4065 609.648 Z" fill="#000000" fill-rule="evenodd" fill-opacity="1" /><path clip-path="url(#clip460)" d="M14.5426 599.336 L14.5426 594.243 Q22.0542 589.469 29.2474 587.114 Q36.4406 584.727 43.5384 584.727 Q50.668 584.727 57.8931 587.114 Q65.1182 589.469 72.5979 594.243 L72.5979 599.336 Q65.3091 595.103 58.1159 593.034 Q50.8908 590.933 43.5384 590.933 Q36.186 590.933 29.0246 593.034 Q21.8632 595.103 14.5426 599.336 Z" fill="#000000" fill-rule="evenodd" fill-opacity="1" /><polyline clip-path="url(#clip462)" style="stroke:#0000ff; stroke-linecap:butt; stroke-linejoin:round; stroke-width:12; stroke-opacity:1; fill:none" points="
  281.933,1256.85 569.149,1092.09 856.364,948.764 1143.58,806.654 1430.79,670.771 1718.01,532.47 2005.23,394.85 2292.44,256.894 
  "/>
<polyline clip-path="url(#clip462)" style="stroke:#0000ff; stroke-linecap:butt; stroke-linejoin:round; stroke-width:12; stroke-opacity:1; fill:none" stroke-dasharray="48, 30" points="
  281.933,1384.24 569.149,1383.39 856.364,1383.83 1143.58,1382.94 1430.79,1382.91 1718.01,1383.43 2005.23,1383.38 2292.44,1383.15 
  "/>
<polyline clip-path="url(#clip462)" style="stroke:#ff0000; stroke-linecap:butt; stroke-linejoin:round; stroke-width:12; stroke-opacity:1; fill:none" points="
  281.933,1021.91 569.149,907.264 856.364,775.161 1143.58,638.001 1430.79,500.355 1718.01,362.215 2005.23,224.372 2292.44,86.1857 
  "/>
<polyline clip-path="url(#clip462)" style="stroke:#ff0000; stroke-linecap:butt; stroke-linejoin:round; stroke-width:12; stroke-opacity:1; fill:none" stroke-dasharray="48, 30" points="
  281.933,1290.01 569.149,1290.44 856.364,1289.16 1143.58,1289.17 1430.79,1288.67 1718.01,1287.91 2005.23,1286.55 2292.44,1288.5 
  "/>
<path clip-path="url(#clip460)" d="
M292.656 352.309 L913.822 352.309 L913.822 93.1086 L292.656 93.1086  Z
  " fill="#ffffff" fill-rule="evenodd" fill-opacity="1"/>
<polyline clip-path="url(#clip460)" style="stroke:#000000; stroke-linecap:butt; stroke-linejoin:round; stroke-width:4; stroke-opacity:1; fill:none" points="
  292.656,352.309 913.822,352.309 913.822,93.1086 292.656,93.1086 292.656,352.309 
  "/>
<polyline clip-path="url(#clip460)" style="stroke:#0000ff; stroke-linecap:butt; stroke-linejoin:round; stroke-width:4; stroke-opacity:1; fill:none" points="
  316.336,144.949 458.411,144.949 
  "/>
<path clip-path="url(#clip460)" d="M486.767 131.511 L486.767 144.497 L492.646 144.497 Q495.91 144.497 497.692 142.807 Q499.475 141.118 499.475 137.993 Q499.475 134.891 497.692 133.201 Q495.91 131.511 492.646 131.511 L486.767 131.511 M482.091 127.669 L492.646 127.669 Q498.456 127.669 501.419 130.307 Q504.405 132.923 504.405 137.993 Q504.405 143.108 501.419 145.724 Q498.456 148.34 492.646 148.34 L486.767 148.34 L486.767 162.229 L482.091 162.229 L482.091 127.669 Z" fill="#000000" fill-rule="evenodd" fill-opacity="1" /><path clip-path="url(#clip460)" d="M524.683 140.284 Q523.965 139.868 523.109 139.682 Q522.276 139.474 521.257 139.474 Q517.646 139.474 515.702 141.835 Q513.78 144.173 513.78 148.571 L513.78 162.229 L509.498 162.229 L509.498 136.303 L513.78 136.303 L513.78 140.331 Q515.123 137.969 517.276 136.835 Q519.428 135.678 522.507 135.678 Q522.947 135.678 523.479 135.747 Q524.012 135.794 524.66 135.909 L524.683 140.284 Z" fill="#000000" fill-rule="evenodd" fill-opacity="1" /><path clip-path="url(#clip460)" d="M538.155 139.289 Q534.729 139.289 532.739 141.974 Q530.748 144.636 530.748 149.289 Q530.748 153.942 532.715 156.627 Q534.706 159.289 538.155 159.289 Q541.558 159.289 543.549 156.604 Q545.539 153.918 545.539 149.289 Q545.539 144.682 543.549 141.997 Q541.558 139.289 538.155 139.289 M538.155 135.678 Q543.711 135.678 546.882 139.289 Q550.053 142.9 550.053 149.289 Q550.053 155.655 546.882 159.289 Q543.711 162.9 538.155 162.9 Q532.576 162.9 529.405 159.289 Q526.257 155.655 526.257 149.289 Q526.257 142.9 529.405 139.289 Q532.576 135.678 538.155 135.678 Z" fill="#000000" fill-rule="evenodd" fill-opacity="1" /><path clip-path="url(#clip460)" d="M561.326 128.942 L561.326 136.303 L570.099 136.303 L570.099 139.613 L561.326 139.613 L561.326 153.687 Q561.326 156.858 562.183 157.761 Q563.062 158.664 565.724 158.664 L570.099 158.664 L570.099 162.229 L565.724 162.229 Q560.794 162.229 558.919 160.4 Q557.044 158.548 557.044 153.687 L557.044 139.613 L553.919 139.613 L553.919 136.303 L557.044 136.303 L557.044 128.942 L561.326 128.942 Z" fill="#000000" fill-rule="evenodd" fill-opacity="1" /><path clip-path="url(#clip460)" d="M585.748 139.289 Q582.322 139.289 580.331 141.974 Q578.34 144.636 578.34 149.289 Q578.34 153.942 580.308 156.627 Q582.298 159.289 585.748 159.289 Q589.15 159.289 591.141 156.604 Q593.132 153.918 593.132 149.289 Q593.132 144.682 591.141 141.997 Q589.15 139.289 585.748 139.289 M585.748 135.678 Q591.303 135.678 594.474 139.289 Q597.646 142.9 597.646 149.289 Q597.646 155.655 594.474 159.289 Q591.303 162.9 585.748 162.9 Q580.169 162.9 576.998 159.289 Q573.849 155.655 573.849 149.289 Q573.849 142.9 576.998 139.289 Q580.169 135.678 585.748 135.678 Z" fill="#000000" fill-rule="evenodd" fill-opacity="1" /><path clip-path="url(#clip460)" d="M609.567 145.724 L609.567 158.386 L617.067 158.386 Q620.84 158.386 622.645 156.835 Q624.474 155.261 624.474 152.043 Q624.474 148.803 622.645 147.275 Q620.84 145.724 617.067 145.724 L609.567 145.724 M609.567 131.511 L609.567 141.928 L616.488 141.928 Q619.914 141.928 621.581 140.655 Q623.27 139.358 623.27 136.719 Q623.27 134.104 621.581 132.807 Q619.914 131.511 616.488 131.511 L609.567 131.511 M604.891 127.669 L616.835 127.669 Q622.183 127.669 625.076 129.891 Q627.97 132.113 627.97 136.21 Q627.97 139.382 626.488 141.257 Q625.007 143.131 622.136 143.594 Q625.585 144.335 627.483 146.696 Q629.405 149.034 629.405 152.553 Q629.405 157.182 626.257 159.705 Q623.108 162.229 617.298 162.229 L604.891 162.229 L604.891 127.669 Z" fill="#000000" fill-rule="evenodd" fill-opacity="1" /><path clip-path="url(#clip460)" d="M636.789 151.997 L636.789 136.303 L641.048 136.303 L641.048 151.835 Q641.048 155.516 642.483 157.368 Q643.918 159.196 646.789 159.196 Q650.238 159.196 652.229 156.997 Q654.243 154.798 654.243 151.002 L654.243 136.303 L658.502 136.303 L658.502 162.229 L654.243 162.229 L654.243 158.247 Q652.692 160.608 650.631 161.766 Q648.594 162.9 645.886 162.9 Q641.419 162.9 639.104 160.122 Q636.789 157.344 636.789 151.997 M647.506 135.678 L647.506 135.678 Z" fill="#000000" fill-rule="evenodd" fill-opacity="1" /><path clip-path="url(#clip460)" d="M680.4 126.21 L680.4 129.752 L676.326 129.752 Q674.034 129.752 673.131 130.678 Q672.252 131.604 672.252 134.011 L672.252 136.303 L679.266 136.303 L679.266 139.613 L672.252 139.613 L672.252 162.229 L667.969 162.229 L667.969 139.613 L663.895 139.613 L663.895 136.303 L667.969 136.303 L667.969 134.497 Q667.969 130.169 669.983 128.201 Q671.997 126.21 676.372 126.21 L680.4 126.21 Z" fill="#000000" fill-rule="evenodd" fill-opacity="1" /><path clip-path="url(#clip460)" d="M721.21 148.201 L721.21 150.284 L701.627 150.284 Q701.904 154.682 704.265 156.997 Q706.65 159.289 710.886 159.289 Q713.339 159.289 715.631 158.687 Q717.946 158.085 720.214 156.881 L720.214 160.909 Q717.923 161.881 715.515 162.391 Q713.108 162.9 710.631 162.9 Q704.427 162.9 700.793 159.289 Q697.182 155.678 697.182 149.52 Q697.182 143.155 700.608 139.428 Q704.057 135.678 709.89 135.678 Q715.122 135.678 718.154 139.057 Q721.21 142.414 721.21 148.201 M716.951 146.951 Q716.904 143.456 714.983 141.372 Q713.085 139.289 709.937 139.289 Q706.372 139.289 704.219 141.303 Q702.089 143.317 701.765 146.974 L716.951 146.951 Z" fill="#000000" fill-rule="evenodd" fill-opacity="1" /><path clip-path="url(#clip460)" d="M749.751 146.581 L749.751 162.229 L745.492 162.229 L745.492 146.719 Q745.492 143.039 744.057 141.21 Q742.622 139.382 739.751 139.382 Q736.302 139.382 734.312 141.581 Q732.321 143.78 732.321 147.576 L732.321 162.229 L728.038 162.229 L728.038 136.303 L732.321 136.303 L732.321 140.331 Q733.849 137.993 735.909 136.835 Q737.992 135.678 740.7 135.678 Q745.168 135.678 747.46 138.456 Q749.751 141.21 749.751 146.581 Z" fill="#000000" fill-rule="evenodd" fill-opacity="1" /><path clip-path="url(#clip460)" d="M776.904 137.298 L776.904 141.28 Q775.098 140.284 773.27 139.798 Q771.464 139.289 769.612 139.289 Q765.469 139.289 763.177 141.928 Q760.885 144.544 760.885 149.289 Q760.885 154.034 763.177 156.673 Q765.469 159.289 769.612 159.289 Q771.464 159.289 773.27 158.803 Q775.098 158.293 776.904 157.298 L776.904 161.233 Q775.121 162.067 773.2 162.483 Q771.302 162.9 769.149 162.9 Q763.293 162.9 759.844 159.219 Q756.395 155.539 756.395 149.289 Q756.395 142.946 759.867 139.312 Q763.362 135.678 769.427 135.678 Q771.395 135.678 773.27 136.095 Q775.145 136.488 776.904 137.298 Z" fill="#000000" fill-rule="evenodd" fill-opacity="1" /><path clip-path="url(#clip460)" d="M794.358 139.289 Q790.932 139.289 788.941 141.974 Q786.95 144.636 786.95 149.289 Q786.95 153.942 788.918 156.627 Q790.908 159.289 794.358 159.289 Q797.76 159.289 799.751 156.604 Q801.742 153.918 801.742 149.289 Q801.742 144.682 799.751 141.997 Q797.76 139.289 794.358 139.289 M794.358 135.678 Q799.913 135.678 803.084 139.289 Q806.256 142.9 806.256 149.289 Q806.256 155.655 803.084 159.289 Q799.913 162.9 794.358 162.9 Q788.779 162.9 785.608 159.289 Q782.459 155.655 782.459 149.289 Q782.459 142.9 785.608 139.289 Q788.779 135.678 794.358 135.678 Z" fill="#000000" fill-rule="evenodd" fill-opacity="1" /><path clip-path="url(#clip460)" d="M830.376 140.238 L830.376 126.21 L834.635 126.21 L834.635 162.229 L830.376 162.229 L830.376 158.34 Q829.033 160.655 826.973 161.789 Q824.936 162.9 822.066 162.9 Q817.367 162.9 814.404 159.15 Q811.464 155.4 811.464 149.289 Q811.464 143.178 814.404 139.428 Q817.367 135.678 822.066 135.678 Q824.936 135.678 826.973 136.812 Q829.033 137.923 830.376 140.238 M815.862 149.289 Q815.862 153.988 817.783 156.673 Q819.728 159.335 823.107 159.335 Q826.487 159.335 828.431 156.673 Q830.376 153.988 830.376 149.289 Q830.376 144.59 828.431 141.928 Q826.487 139.243 823.107 139.243 Q819.728 139.243 817.783 141.928 Q815.862 144.59 815.862 149.289 Z" fill="#000000" fill-rule="evenodd" fill-opacity="1" /><path clip-path="url(#clip460)" d="M865.584 148.201 L865.584 150.284 L846.001 150.284 Q846.279 154.682 848.64 156.997 Q851.024 159.289 855.26 159.289 Q857.714 159.289 860.005 158.687 Q862.32 158.085 864.589 156.881 L864.589 160.909 Q862.297 161.881 859.89 162.391 Q857.482 162.9 855.005 162.9 Q848.802 162.9 845.167 159.289 Q841.556 155.678 841.556 149.52 Q841.556 143.155 844.982 139.428 Q848.431 135.678 854.265 135.678 Q859.496 135.678 862.528 139.057 Q865.584 142.414 865.584 148.201 M861.325 146.951 Q861.278 143.456 859.357 141.372 Q857.459 139.289 854.311 139.289 Q850.746 139.289 848.593 141.303 Q846.464 143.317 846.14 146.974 L861.325 146.951 Z" fill="#000000" fill-rule="evenodd" fill-opacity="1" /><polyline clip-path="url(#clip460)" style="stroke:#0000ff; stroke-linecap:butt; stroke-linejoin:round; stroke-width:4; stroke-opacity:1; fill:none" stroke-dasharray="16, 10" points="
  316.336,196.789 458.411,196.789 
  "/>
<path clip-path="url(#clip460)" d="M486.767 183.351 L486.767 196.337 L492.646 196.337 Q495.91 196.337 497.692 194.647 Q499.475 192.958 499.475 189.833 Q499.475 186.731 497.692 185.041 Q495.91 183.351 492.646 183.351 L486.767 183.351 M482.091 179.509 L492.646 179.509 Q498.456 179.509 501.419 182.147 Q504.405 184.763 504.405 189.833 Q504.405 194.948 501.419 197.564 Q498.456 200.18 492.646 200.18 L486.767 200.18 L486.767 214.069 L482.091 214.069 L482.091 179.509 Z" fill="#000000" fill-rule="evenodd" fill-opacity="1" /><path clip-path="url(#clip460)" d="M524.683 192.124 Q523.965 191.708 523.109 191.522 Q522.276 191.314 521.257 191.314 Q517.646 191.314 515.702 193.675 Q513.78 196.013 513.78 200.411 L513.78 214.069 L509.498 214.069 L509.498 188.143 L513.78 188.143 L513.78 192.171 Q515.123 189.809 517.276 188.675 Q519.428 187.518 522.507 187.518 Q522.947 187.518 523.479 187.587 Q524.012 187.634 524.66 187.749 L524.683 192.124 Z" fill="#000000" fill-rule="evenodd" fill-opacity="1" /><path clip-path="url(#clip460)" d="M538.155 191.129 Q534.729 191.129 532.739 193.814 Q530.748 196.476 530.748 201.129 Q530.748 205.782 532.715 208.467 Q534.706 211.129 538.155 211.129 Q541.558 211.129 543.549 208.444 Q545.539 205.758 545.539 201.129 Q545.539 196.522 543.549 193.837 Q541.558 191.129 538.155 191.129 M538.155 187.518 Q543.711 187.518 546.882 191.129 Q550.053 194.74 550.053 201.129 Q550.053 207.495 546.882 211.129 Q543.711 214.74 538.155 214.74 Q532.576 214.74 529.405 211.129 Q526.257 207.495 526.257 201.129 Q526.257 194.74 529.405 191.129 Q532.576 187.518 538.155 187.518 Z" fill="#000000" fill-rule="evenodd" fill-opacity="1" /><path clip-path="url(#clip460)" d="M561.326 180.782 L561.326 188.143 L570.099 188.143 L570.099 191.453 L561.326 191.453 L561.326 205.527 Q561.326 208.698 562.183 209.601 Q563.062 210.504 565.724 210.504 L570.099 210.504 L570.099 214.069 L565.724 214.069 Q560.794 214.069 558.919 212.24 Q557.044 210.388 557.044 205.527 L557.044 191.453 L553.919 191.453 L553.919 188.143 L557.044 188.143 L557.044 180.782 L561.326 180.782 Z" fill="#000000" fill-rule="evenodd" fill-opacity="1" /><path clip-path="url(#clip460)" d="M585.748 191.129 Q582.322 191.129 580.331 193.814 Q578.34 196.476 578.34 201.129 Q578.34 205.782 580.308 208.467 Q582.298 211.129 585.748 211.129 Q589.15 211.129 591.141 208.444 Q593.132 205.758 593.132 201.129 Q593.132 196.522 591.141 193.837 Q589.15 191.129 585.748 191.129 M585.748 187.518 Q591.303 187.518 594.474 191.129 Q597.646 194.74 597.646 201.129 Q597.646 207.495 594.474 211.129 Q591.303 214.74 585.748 214.74 Q580.169 214.74 576.998 211.129 Q573.849 207.495 573.849 201.129 Q573.849 194.74 576.998 191.129 Q580.169 187.518 585.748 187.518 Z" fill="#000000" fill-rule="evenodd" fill-opacity="1" /><path clip-path="url(#clip460)" d="M609.567 197.564 L609.567 210.226 L617.067 210.226 Q620.84 210.226 622.645 208.675 Q624.474 207.101 624.474 203.883 Q624.474 200.643 622.645 199.115 Q620.84 197.564 617.067 197.564 L609.567 197.564 M609.567 183.351 L609.567 193.768 L616.488 193.768 Q619.914 193.768 621.581 192.495 Q623.27 191.198 623.27 188.559 Q623.27 185.944 621.581 184.647 Q619.914 183.351 616.488 183.351 L609.567 183.351 M604.891 179.509 L616.835 179.509 Q622.183 179.509 625.076 181.731 Q627.97 183.953 627.97 188.05 Q627.97 191.222 626.488 193.097 Q625.007 194.971 622.136 195.434 Q625.585 196.175 627.483 198.536 Q629.405 200.874 629.405 204.393 Q629.405 209.022 626.257 211.545 Q623.108 214.069 617.298 214.069 L604.891 214.069 L604.891 179.509 Z" fill="#000000" fill-rule="evenodd" fill-opacity="1" /><path clip-path="url(#clip460)" d="M636.789 203.837 L636.789 188.143 L641.048 188.143 L641.048 203.675 Q641.048 207.356 642.483 209.208 Q643.918 211.036 646.789 211.036 Q650.238 211.036 652.229 208.837 Q654.243 206.638 654.243 202.842 L654.243 188.143 L658.502 188.143 L658.502 214.069 L654.243 214.069 L654.243 210.087 Q652.692 212.448 650.631 213.606 Q648.594 214.74 645.886 214.74 Q641.419 214.74 639.104 211.962 Q636.789 209.184 636.789 203.837 M647.506 187.518 L647.506 187.518 Z" fill="#000000" fill-rule="evenodd" fill-opacity="1" /><path clip-path="url(#clip460)" d="M680.4 178.05 L680.4 181.592 L676.326 181.592 Q674.034 181.592 673.131 182.518 Q672.252 183.444 672.252 185.851 L672.252 188.143 L679.266 188.143 L679.266 191.453 L672.252 191.453 L672.252 214.069 L667.969 214.069 L667.969 191.453 L663.895 191.453 L663.895 188.143 L667.969 188.143 L667.969 186.337 Q667.969 182.009 669.983 180.041 Q671.997 178.05 676.372 178.05 L680.4 178.05 Z" fill="#000000" fill-rule="evenodd" fill-opacity="1" /><path clip-path="url(#clip460)" d="M716.094 192.078 L716.094 178.05 L720.353 178.05 L720.353 214.069 L716.094 214.069 L716.094 210.18 Q714.751 212.495 712.691 213.629 Q710.654 214.74 707.784 214.74 Q703.085 214.74 700.122 210.99 Q697.182 207.24 697.182 201.129 Q697.182 195.018 700.122 191.268 Q703.085 187.518 707.784 187.518 Q710.654 187.518 712.691 188.652 Q714.751 189.763 716.094 192.078 M701.58 201.129 Q701.58 205.828 703.502 208.513 Q705.446 211.175 708.826 211.175 Q712.205 211.175 714.15 208.513 Q716.094 205.828 716.094 201.129 Q716.094 196.43 714.15 193.768 Q712.205 191.083 708.826 191.083 Q705.446 191.083 703.502 193.768 Q701.58 196.43 701.58 201.129 Z" fill="#000000" fill-rule="evenodd" fill-opacity="1" /><path clip-path="url(#clip460)" d="M751.302 200.041 L751.302 202.124 L731.719 202.124 Q731.997 206.522 734.358 208.837 Q736.742 211.129 740.978 211.129 Q743.432 211.129 745.724 210.527 Q748.038 209.925 750.307 208.721 L750.307 212.749 Q748.015 213.721 745.608 214.231 Q743.2 214.74 740.724 214.74 Q734.52 214.74 730.886 211.129 Q727.275 207.518 727.275 201.36 Q727.275 194.995 730.7 191.268 Q734.149 187.518 739.983 187.518 Q745.214 187.518 748.247 190.897 Q751.302 194.254 751.302 200.041 M747.043 198.791 Q746.997 195.296 745.075 193.212 Q743.177 191.129 740.029 191.129 Q736.464 191.129 734.312 193.143 Q732.182 195.157 731.858 198.814 L747.043 198.791 Z" fill="#000000" fill-rule="evenodd" fill-opacity="1" /><path clip-path="url(#clip460)" d="M776.95 189.138 L776.95 193.12 Q775.145 192.124 773.316 191.638 Q771.51 191.129 769.659 191.129 Q765.515 191.129 763.223 193.768 Q760.932 196.384 760.932 201.129 Q760.932 205.874 763.223 208.513 Q765.515 211.129 769.659 211.129 Q771.51 211.129 773.316 210.643 Q775.145 210.133 776.95 209.138 L776.95 213.073 Q775.168 213.907 773.247 214.323 Q771.348 214.74 769.196 214.74 Q763.339 214.74 759.89 211.059 Q756.441 207.379 756.441 201.129 Q756.441 194.786 759.913 191.152 Q763.409 187.518 769.473 187.518 Q771.441 187.518 773.316 187.935 Q775.191 188.328 776.95 189.138 Z" fill="#000000" fill-rule="evenodd" fill-opacity="1" /><path clip-path="url(#clip460)" d="M794.404 191.129 Q790.978 191.129 788.987 193.814 Q786.996 196.476 786.996 201.129 Q786.996 205.782 788.964 208.467 Q790.955 211.129 794.404 211.129 Q797.807 211.129 799.797 208.444 Q801.788 205.758 801.788 201.129 Q801.788 196.522 799.797 193.837 Q797.807 191.129 794.404 191.129 M794.404 187.518 Q799.959 187.518 803.131 191.129 Q806.302 194.74 806.302 201.129 Q806.302 207.495 803.131 211.129 Q799.959 214.74 794.404 214.74 Q788.825 214.74 785.654 211.129 Q782.506 207.495 782.506 201.129 Q782.506 194.74 785.654 191.129 Q788.825 187.518 794.404 187.518 Z" fill="#000000" fill-rule="evenodd" fill-opacity="1" /><path clip-path="url(#clip460)" d="M830.422 192.078 L830.422 178.05 L834.681 178.05 L834.681 214.069 L830.422 214.069 L830.422 210.18 Q829.08 212.495 827.019 213.629 Q824.982 214.74 822.112 214.74 Q817.413 214.74 814.45 210.99 Q811.51 207.24 811.51 201.129 Q811.51 195.018 814.45 191.268 Q817.413 187.518 822.112 187.518 Q824.982 187.518 827.019 188.652 Q829.08 189.763 830.422 192.078 M815.908 201.129 Q815.908 205.828 817.83 208.513 Q819.774 211.175 823.154 211.175 Q826.533 211.175 828.478 208.513 Q830.422 205.828 830.422 201.129 Q830.422 196.43 828.478 193.768 Q826.533 191.083 823.154 191.083 Q819.774 191.083 817.83 193.768 Q815.908 196.43 815.908 201.129 Z" fill="#000000" fill-rule="evenodd" fill-opacity="1" /><path clip-path="url(#clip460)" d="M865.63 200.041 L865.63 202.124 L846.047 202.124 Q846.325 206.522 848.686 208.837 Q851.07 211.129 855.306 211.129 Q857.76 211.129 860.052 210.527 Q862.366 209.925 864.635 208.721 L864.635 212.749 Q862.343 213.721 859.936 214.231 Q857.528 214.74 855.052 214.74 Q848.848 214.74 845.214 211.129 Q841.603 207.518 841.603 201.36 Q841.603 194.995 845.029 191.268 Q848.478 187.518 854.311 187.518 Q859.542 187.518 862.575 190.897 Q865.63 194.254 865.63 200.041 M861.371 198.791 Q861.325 195.296 859.403 193.212 Q857.505 191.129 854.357 191.129 Q850.792 191.129 848.64 193.143 Q846.51 195.157 846.186 198.814 L861.371 198.791 Z" fill="#000000" fill-rule="evenodd" fill-opacity="1" /><polyline clip-path="url(#clip460)" style="stroke:#ff0000; stroke-linecap:butt; stroke-linejoin:round; stroke-width:4; stroke-opacity:1; fill:none" points="
  316.336,248.629 458.411,248.629 
  "/>
<path clip-path="url(#clip460)" d="M504.336 232.483 L504.336 237.043 Q501.674 235.77 499.313 235.145 Q496.952 234.52 494.753 234.52 Q490.933 234.52 488.85 236.001 Q486.79 237.483 486.79 240.214 Q486.79 242.506 488.155 243.687 Q489.544 244.844 493.387 245.562 L496.211 246.14 Q501.442 247.136 503.919 249.659 Q506.419 252.159 506.419 256.372 Q506.419 261.395 503.04 263.987 Q499.683 266.58 493.179 266.58 Q490.725 266.58 487.947 266.024 Q485.192 265.469 482.23 264.381 L482.23 259.566 Q485.077 261.163 487.808 261.973 Q490.54 262.784 493.179 262.784 Q497.183 262.784 499.359 261.21 Q501.535 259.636 501.535 256.719 Q501.535 254.173 499.961 252.737 Q498.41 251.302 494.845 250.585 L491.998 250.029 Q486.767 248.987 484.429 246.765 Q482.091 244.543 482.091 240.585 Q482.091 236.001 485.308 233.362 Q488.549 230.724 494.22 230.724 Q496.651 230.724 499.174 231.163 Q501.697 231.603 504.336 232.483 Z" fill="#000000" fill-rule="evenodd" fill-opacity="1" /><path clip-path="url(#clip460)" d="M535.701 251.881 L535.701 253.964 L516.118 253.964 Q516.396 258.362 518.757 260.677 Q521.141 262.969 525.377 262.969 Q527.831 262.969 530.123 262.367 Q532.438 261.765 534.706 260.561 L534.706 264.589 Q532.414 265.561 530.007 266.071 Q527.6 266.58 525.123 266.58 Q518.919 266.58 515.285 262.969 Q511.674 259.358 511.674 253.2 Q511.674 246.835 515.1 243.108 Q518.549 239.358 524.382 239.358 Q529.614 239.358 532.646 242.737 Q535.701 246.094 535.701 251.881 M531.442 250.631 Q531.396 247.136 529.475 245.052 Q527.577 242.969 524.428 242.969 Q520.864 242.969 518.711 244.983 Q516.581 246.997 516.257 250.654 L531.442 250.631 Z" fill="#000000" fill-rule="evenodd" fill-opacity="1" /><path clip-path="url(#clip460)" d="M557.715 243.964 Q556.998 243.548 556.141 243.362 Q555.308 243.154 554.289 243.154 Q550.678 243.154 548.734 245.515 Q546.813 247.853 546.813 252.251 L546.813 265.909 L542.53 265.909 L542.53 239.983 L546.813 239.983 L546.813 244.011 Q548.155 241.649 550.308 240.515 Q552.461 239.358 555.539 239.358 Q555.979 239.358 556.512 239.427 Q557.044 239.474 557.692 239.589 L557.715 243.964 Z" fill="#000000" fill-rule="evenodd" fill-opacity="1" /><path clip-path="url(#clip460)" d="M562.183 239.983 L566.442 239.983 L566.442 265.909 L562.183 265.909 L562.183 239.983 M562.183 229.89 L566.442 229.89 L566.442 235.284 L562.183 235.284 L562.183 229.89 Z" fill="#000000" fill-rule="evenodd" fill-opacity="1" /><path clip-path="url(#clip460)" d="M587.136 252.876 Q581.974 252.876 579.984 254.057 Q577.993 255.237 577.993 258.085 Q577.993 260.353 579.474 261.696 Q580.979 263.015 583.548 263.015 Q587.09 263.015 589.22 260.515 Q591.372 257.992 591.372 253.825 L591.372 252.876 L587.136 252.876 M595.632 251.117 L595.632 265.909 L591.372 265.909 L591.372 261.973 Q589.914 264.335 587.738 265.469 Q585.562 266.58 582.414 266.58 Q578.433 266.58 576.072 264.358 Q573.734 262.112 573.734 258.362 Q573.734 253.987 576.65 251.765 Q579.59 249.543 585.4 249.543 L591.372 249.543 L591.372 249.126 Q591.372 246.187 589.428 244.589 Q587.507 242.969 584.011 242.969 Q581.789 242.969 579.683 243.501 Q577.576 244.034 575.632 245.099 L575.632 241.163 Q577.97 240.261 580.169 239.821 Q582.368 239.358 584.451 239.358 Q590.076 239.358 592.854 242.274 Q595.632 245.191 595.632 251.117 Z" fill="#000000" fill-rule="evenodd" fill-opacity="1" /><path clip-path="url(#clip460)" d="M604.405 229.89 L608.664 229.89 L608.664 265.909 L604.405 265.909 L604.405 229.89 Z" fill="#000000" fill-rule="evenodd" fill-opacity="1" /><path clip-path="url(#clip460)" d="M617.576 239.983 L621.835 239.983 L621.835 265.909 L617.576 265.909 L617.576 239.983 M617.576 229.89 L621.835 229.89 L621.835 235.284 L617.576 235.284 L617.576 229.89 Z" fill="#000000" fill-rule="evenodd" fill-opacity="1" /><path clip-path="url(#clip460)" d="M628.895 239.983 L649.127 239.983 L649.127 243.872 L633.108 262.506 L649.127 262.506 L649.127 265.909 L628.317 265.909 L628.317 262.02 L644.335 243.386 L628.895 243.386 L628.895 239.983 Z" fill="#000000" fill-rule="evenodd" fill-opacity="1" /><path clip-path="url(#clip460)" d="M677.807 251.881 L677.807 253.964 L658.224 253.964 Q658.502 258.362 660.863 260.677 Q663.247 262.969 667.483 262.969 Q669.937 262.969 672.229 262.367 Q674.543 261.765 676.812 260.561 L676.812 264.589 Q674.52 265.561 672.113 266.071 Q669.705 266.58 667.229 266.58 Q661.025 266.58 657.391 262.969 Q653.78 259.358 653.78 253.2 Q653.78 246.835 657.205 243.108 Q660.655 239.358 666.488 239.358 Q671.719 239.358 674.752 242.737 Q677.807 246.094 677.807 251.881 M673.548 250.631 Q673.502 247.136 671.58 245.052 Q669.682 242.969 666.534 242.969 Q662.969 242.969 660.817 244.983 Q658.687 246.997 658.363 250.654 L673.548 250.631 Z" fill="#000000" fill-rule="evenodd" fill-opacity="1" /><path clip-path="url(#clip460)" d="M722.043 251.881 L722.043 253.964 L702.46 253.964 Q702.738 258.362 705.099 260.677 Q707.483 262.969 711.719 262.969 Q714.173 262.969 716.464 262.367 Q718.779 261.765 721.048 260.561 L721.048 264.589 Q718.756 265.561 716.349 266.071 Q713.941 266.58 711.464 266.58 Q705.261 266.58 701.627 262.969 Q698.015 259.358 698.015 253.2 Q698.015 246.835 701.441 243.108 Q704.89 239.358 710.724 239.358 Q715.955 239.358 718.988 242.737 Q722.043 246.094 722.043 251.881 M717.784 250.631 Q717.738 247.136 715.816 245.052 Q713.918 242.969 710.77 242.969 Q707.205 242.969 705.052 244.983 Q702.923 246.997 702.599 250.654 L717.784 250.631 Z" fill="#000000" fill-rule="evenodd" fill-opacity="1" /><path clip-path="url(#clip460)" d="M750.585 250.261 L750.585 265.909 L746.325 265.909 L746.325 250.399 Q746.325 246.719 744.89 244.89 Q743.455 243.062 740.585 243.062 Q737.136 243.062 735.145 245.261 Q733.154 247.46 733.154 251.256 L733.154 265.909 L728.872 265.909 L728.872 239.983 L733.154 239.983 L733.154 244.011 Q734.682 241.673 736.742 240.515 Q738.825 239.358 741.534 239.358 Q746.001 239.358 748.293 242.136 Q750.585 244.89 750.585 250.261 Z" fill="#000000" fill-rule="evenodd" fill-opacity="1" /><path clip-path="url(#clip460)" d="M777.737 240.978 L777.737 244.96 Q775.932 243.964 774.103 243.478 Q772.297 242.969 770.446 242.969 Q766.302 242.969 764.01 245.608 Q761.719 248.224 761.719 252.969 Q761.719 257.714 764.01 260.353 Q766.302 262.969 770.446 262.969 Q772.297 262.969 774.103 262.483 Q775.932 261.973 777.737 260.978 L777.737 264.913 Q775.955 265.747 774.034 266.163 Q772.135 266.58 769.983 266.58 Q764.126 266.58 760.677 262.899 Q757.228 259.219 757.228 252.969 Q757.228 246.626 760.7 242.992 Q764.196 239.358 770.26 239.358 Q772.228 239.358 774.103 239.775 Q775.978 240.168 777.737 240.978 Z" fill="#000000" fill-rule="evenodd" fill-opacity="1" /><path clip-path="url(#clip460)" d="M795.191 242.969 Q791.765 242.969 789.774 245.654 Q787.783 248.316 787.783 252.969 Q787.783 257.622 789.751 260.307 Q791.742 262.969 795.191 262.969 Q798.594 262.969 800.584 260.284 Q802.575 257.598 802.575 252.969 Q802.575 248.362 800.584 245.677 Q798.594 242.969 795.191 242.969 M795.191 239.358 Q800.746 239.358 803.918 242.969 Q807.089 246.58 807.089 252.969 Q807.089 259.335 803.918 262.969 Q800.746 266.58 795.191 266.58 Q789.612 266.58 786.441 262.969 Q783.293 259.335 783.293 252.969 Q783.293 246.58 786.441 242.969 Q789.612 239.358 795.191 239.358 Z" fill="#000000" fill-rule="evenodd" fill-opacity="1" /><path clip-path="url(#clip460)" d="M831.209 243.918 L831.209 229.89 L835.468 229.89 L835.468 265.909 L831.209 265.909 L831.209 262.02 Q829.867 264.335 827.806 265.469 Q825.769 266.58 822.899 266.58 Q818.2 266.58 815.237 262.83 Q812.297 259.08 812.297 252.969 Q812.297 246.858 815.237 243.108 Q818.2 239.358 822.899 239.358 Q825.769 239.358 827.806 240.492 Q829.867 241.603 831.209 243.918 M816.695 252.969 Q816.695 257.668 818.617 260.353 Q820.561 263.015 823.941 263.015 Q827.32 263.015 829.265 260.353 Q831.209 257.668 831.209 252.969 Q831.209 248.27 829.265 245.608 Q827.32 242.923 823.941 242.923 Q820.561 242.923 818.617 245.608 Q816.695 248.27 816.695 252.969 Z" fill="#000000" fill-rule="evenodd" fill-opacity="1" /><path clip-path="url(#clip460)" d="M866.417 251.881 L866.417 253.964 L846.834 253.964 Q847.112 258.362 849.473 260.677 Q851.857 262.969 856.093 262.969 Q858.547 262.969 860.839 262.367 Q863.153 261.765 865.422 260.561 L865.422 264.589 Q863.13 265.561 860.723 266.071 Q858.315 266.58 855.839 266.58 Q849.635 266.58 846.001 262.969 Q842.39 259.358 842.39 253.2 Q842.39 246.835 845.816 243.108 Q849.265 239.358 855.098 239.358 Q860.329 239.358 863.362 242.737 Q866.417 246.094 866.417 251.881 M862.158 250.631 Q862.112 247.136 860.19 245.052 Q858.292 242.969 855.144 242.969 Q851.579 242.969 849.427 244.983 Q847.297 246.997 846.973 250.654 L862.158 250.631 Z" fill="#000000" fill-rule="evenodd" fill-opacity="1" /><polyline clip-path="url(#clip460)" style="stroke:#ff0000; stroke-linecap:butt; stroke-linejoin:round; stroke-width:4; stroke-opacity:1; fill:none" stroke-dasharray="16, 10" points="
  316.336,300.469 458.411,300.469 
  "/>
<path clip-path="url(#clip460)" d="M504.336 284.323 L504.336 288.883 Q501.674 287.61 499.313 286.985 Q496.952 286.36 494.753 286.36 Q490.933 286.36 488.85 287.841 Q486.79 289.323 486.79 292.054 Q486.79 294.346 488.155 295.527 Q489.544 296.684 493.387 297.402 L496.211 297.98 Q501.442 298.976 503.919 301.499 Q506.419 303.999 506.419 308.212 Q506.419 313.235 503.04 315.827 Q499.683 318.42 493.179 318.42 Q490.725 318.42 487.947 317.864 Q485.192 317.309 482.23 316.221 L482.23 311.406 Q485.077 313.003 487.808 313.813 Q490.54 314.624 493.179 314.624 Q497.183 314.624 499.359 313.05 Q501.535 311.476 501.535 308.559 Q501.535 306.013 499.961 304.577 Q498.41 303.142 494.845 302.425 L491.998 301.869 Q486.767 300.827 484.429 298.605 Q482.091 296.383 482.091 292.425 Q482.091 287.841 485.308 285.202 Q488.549 282.564 494.22 282.564 Q496.651 282.564 499.174 283.003 Q501.697 283.443 504.336 284.323 Z" fill="#000000" fill-rule="evenodd" fill-opacity="1" /><path clip-path="url(#clip460)" d="M535.701 303.721 L535.701 305.804 L516.118 305.804 Q516.396 310.202 518.757 312.517 Q521.141 314.809 525.377 314.809 Q527.831 314.809 530.123 314.207 Q532.438 313.605 534.706 312.401 L534.706 316.429 Q532.414 317.401 530.007 317.911 Q527.6 318.42 525.123 318.42 Q518.919 318.42 515.285 314.809 Q511.674 311.198 511.674 305.04 Q511.674 298.675 515.1 294.948 Q518.549 291.198 524.382 291.198 Q529.614 291.198 532.646 294.577 Q535.701 297.934 535.701 303.721 M531.442 302.471 Q531.396 298.976 529.475 296.892 Q527.577 294.809 524.428 294.809 Q520.864 294.809 518.711 296.823 Q516.581 298.837 516.257 302.494 L531.442 302.471 Z" fill="#000000" fill-rule="evenodd" fill-opacity="1" /><path clip-path="url(#clip460)" d="M557.715 295.804 Q556.998 295.388 556.141 295.202 Q555.308 294.994 554.289 294.994 Q550.678 294.994 548.734 297.355 Q546.813 299.693 546.813 304.091 L546.813 317.749 L542.53 317.749 L542.53 291.823 L546.813 291.823 L546.813 295.851 Q548.155 293.489 550.308 292.355 Q552.461 291.198 555.539 291.198 Q555.979 291.198 556.512 291.267 Q557.044 291.314 557.692 291.429 L557.715 295.804 Z" fill="#000000" fill-rule="evenodd" fill-opacity="1" /><path clip-path="url(#clip460)" d="M562.183 291.823 L566.442 291.823 L566.442 317.749 L562.183 317.749 L562.183 291.823 M562.183 281.73 L566.442 281.73 L566.442 287.124 L562.183 287.124 L562.183 281.73 Z" fill="#000000" fill-rule="evenodd" fill-opacity="1" /><path clip-path="url(#clip460)" d="M587.136 304.716 Q581.974 304.716 579.984 305.897 Q577.993 307.077 577.993 309.925 Q577.993 312.193 579.474 313.536 Q580.979 314.855 583.548 314.855 Q587.09 314.855 589.22 312.355 Q591.372 309.832 591.372 305.665 L591.372 304.716 L587.136 304.716 M595.632 302.957 L595.632 317.749 L591.372 317.749 L591.372 313.813 Q589.914 316.175 587.738 317.309 Q585.562 318.42 582.414 318.42 Q578.433 318.42 576.072 316.198 Q573.734 313.952 573.734 310.202 Q573.734 305.827 576.65 303.605 Q579.59 301.383 585.4 301.383 L591.372 301.383 L591.372 300.966 Q591.372 298.027 589.428 296.429 Q587.507 294.809 584.011 294.809 Q581.789 294.809 579.683 295.341 Q577.576 295.874 575.632 296.939 L575.632 293.003 Q577.97 292.101 580.169 291.661 Q582.368 291.198 584.451 291.198 Q590.076 291.198 592.854 294.114 Q595.632 297.031 595.632 302.957 Z" fill="#000000" fill-rule="evenodd" fill-opacity="1" /><path clip-path="url(#clip460)" d="M604.405 281.73 L608.664 281.73 L608.664 317.749 L604.405 317.749 L604.405 281.73 Z" fill="#000000" fill-rule="evenodd" fill-opacity="1" /><path clip-path="url(#clip460)" d="M617.576 291.823 L621.835 291.823 L621.835 317.749 L617.576 317.749 L617.576 291.823 M617.576 281.73 L621.835 281.73 L621.835 287.124 L617.576 287.124 L617.576 281.73 Z" fill="#000000" fill-rule="evenodd" fill-opacity="1" /><path clip-path="url(#clip460)" d="M628.895 291.823 L649.127 291.823 L649.127 295.712 L633.108 314.346 L649.127 314.346 L649.127 317.749 L628.317 317.749 L628.317 313.86 L644.335 295.226 L628.895 295.226 L628.895 291.823 Z" fill="#000000" fill-rule="evenodd" fill-opacity="1" /><path clip-path="url(#clip460)" d="M677.807 303.721 L677.807 305.804 L658.224 305.804 Q658.502 310.202 660.863 312.517 Q663.247 314.809 667.483 314.809 Q669.937 314.809 672.229 314.207 Q674.543 313.605 676.812 312.401 L676.812 316.429 Q674.52 317.401 672.113 317.911 Q669.705 318.42 667.229 318.42 Q661.025 318.42 657.391 314.809 Q653.78 311.198 653.78 305.04 Q653.78 298.675 657.205 294.948 Q660.655 291.198 666.488 291.198 Q671.719 291.198 674.752 294.577 Q677.807 297.934 677.807 303.721 M673.548 302.471 Q673.502 298.976 671.58 296.892 Q669.682 294.809 666.534 294.809 Q662.969 294.809 660.817 296.823 Q658.687 298.837 658.363 302.494 L673.548 302.471 Z" fill="#000000" fill-rule="evenodd" fill-opacity="1" /><path clip-path="url(#clip460)" d="M716.927 295.758 L716.927 281.73 L721.187 281.73 L721.187 317.749 L716.927 317.749 L716.927 313.86 Q715.585 316.175 713.525 317.309 Q711.488 318.42 708.617 318.42 Q703.918 318.42 700.955 314.67 Q698.015 310.92 698.015 304.809 Q698.015 298.698 700.955 294.948 Q703.918 291.198 708.617 291.198 Q711.488 291.198 713.525 292.332 Q715.585 293.443 716.927 295.758 M702.414 304.809 Q702.414 309.508 704.335 312.193 Q706.279 314.855 709.659 314.855 Q713.038 314.855 714.983 312.193 Q716.927 309.508 716.927 304.809 Q716.927 300.11 714.983 297.448 Q713.038 294.763 709.659 294.763 Q706.279 294.763 704.335 297.448 Q702.414 300.11 702.414 304.809 Z" fill="#000000" fill-rule="evenodd" fill-opacity="1" /><path clip-path="url(#clip460)" d="M752.136 303.721 L752.136 305.804 L732.552 305.804 Q732.83 310.202 735.191 312.517 Q737.575 314.809 741.811 314.809 Q744.265 314.809 746.557 314.207 Q748.872 313.605 751.14 312.401 L751.14 316.429 Q748.848 317.401 746.441 317.911 Q744.034 318.42 741.557 318.42 Q735.353 318.42 731.719 314.809 Q728.108 311.198 728.108 305.04 Q728.108 298.675 731.534 294.948 Q734.983 291.198 740.816 291.198 Q746.048 291.198 749.08 294.577 Q752.136 297.934 752.136 303.721 M747.876 302.471 Q747.83 298.976 745.909 296.892 Q744.011 294.809 740.862 294.809 Q737.298 294.809 735.145 296.823 Q733.015 298.837 732.691 302.494 L747.876 302.471 Z" fill="#000000" fill-rule="evenodd" fill-opacity="1" /><path clip-path="url(#clip460)" d="M777.784 292.818 L777.784 296.8 Q775.978 295.804 774.149 295.318 Q772.344 294.809 770.492 294.809 Q766.348 294.809 764.057 297.448 Q761.765 300.064 761.765 304.809 Q761.765 309.554 764.057 312.193 Q766.348 314.809 770.492 314.809 Q772.344 314.809 774.149 314.323 Q775.978 313.813 777.784 312.818 L777.784 316.753 Q776.001 317.587 774.08 318.003 Q772.182 318.42 770.029 318.42 Q764.172 318.42 760.723 314.739 Q757.274 311.059 757.274 304.809 Q757.274 298.466 760.747 294.832 Q764.242 291.198 770.307 291.198 Q772.274 291.198 774.149 291.615 Q776.024 292.008 777.784 292.818 Z" fill="#000000" fill-rule="evenodd" fill-opacity="1" /><path clip-path="url(#clip460)" d="M795.237 294.809 Q791.811 294.809 789.82 297.494 Q787.83 300.156 787.83 304.809 Q787.83 309.462 789.797 312.147 Q791.788 314.809 795.237 314.809 Q798.64 314.809 800.631 312.124 Q802.621 309.438 802.621 304.809 Q802.621 300.202 800.631 297.517 Q798.64 294.809 795.237 294.809 M795.237 291.198 Q800.793 291.198 803.964 294.809 Q807.135 298.42 807.135 304.809 Q807.135 311.175 803.964 314.809 Q800.793 318.42 795.237 318.42 Q789.658 318.42 786.487 314.809 Q783.339 311.175 783.339 304.809 Q783.339 298.42 786.487 294.809 Q789.658 291.198 795.237 291.198 Z" fill="#000000" fill-rule="evenodd" fill-opacity="1" /><path clip-path="url(#clip460)" d="M831.255 295.758 L831.255 281.73 L835.515 281.73 L835.515 317.749 L831.255 317.749 L831.255 313.86 Q829.913 316.175 827.853 317.309 Q825.816 318.42 822.945 318.42 Q818.246 318.42 815.283 314.67 Q812.344 310.92 812.344 304.809 Q812.344 298.698 815.283 294.948 Q818.246 291.198 822.945 291.198 Q825.816 291.198 827.853 292.332 Q829.913 293.443 831.255 295.758 M816.742 304.809 Q816.742 309.508 818.663 312.193 Q820.607 314.855 823.987 314.855 Q827.367 314.855 829.311 312.193 Q831.255 309.508 831.255 304.809 Q831.255 300.11 829.311 297.448 Q827.367 294.763 823.987 294.763 Q820.607 294.763 818.663 297.448 Q816.742 300.11 816.742 304.809 Z" fill="#000000" fill-rule="evenodd" fill-opacity="1" /><path clip-path="url(#clip460)" d="M866.464 303.721 L866.464 305.804 L846.88 305.804 Q847.158 310.202 849.519 312.517 Q851.903 314.809 856.14 314.809 Q858.593 314.809 860.885 314.207 Q863.2 313.605 865.468 312.401 L865.468 316.429 Q863.177 317.401 860.769 317.911 Q858.362 318.42 855.885 318.42 Q849.681 318.42 846.047 314.809 Q842.436 311.198 842.436 305.04 Q842.436 298.675 845.862 294.948 Q849.311 291.198 855.144 291.198 Q860.376 291.198 863.408 294.577 Q866.464 297.934 866.464 303.721 M862.204 302.471 Q862.158 298.976 860.237 296.892 Q858.339 294.809 855.191 294.809 Q851.626 294.809 849.473 296.823 Q847.343 298.837 847.019 302.494 L862.204 302.471 Z" fill="#000000" fill-rule="evenodd" fill-opacity="1" /></svg>
