<?xml version="1.0" encoding="utf-8"?>
<svg xmlns="http://www.w3.org/2000/svg" xmlns:xlink="http://www.w3.org/1999/xlink" width="600" height="400" viewBox="0 0 2400 1600">
<defs>
  <clipPath id="clip530">
    <rect x="0" y="0" width="2400" height="1600"/>
  </clipPath>
</defs>
<path clip-path="url(#clip530)" d="
M0 1600 L2400 1600 L2400 0 L0 0  Z
  " fill="#ffffff" fill-rule="evenodd" fill-opacity="1"/>
<defs>
  <clipPath id="clip531">
    <rect x="480" y="0" width="1681" height="1600"/>
  </clipPath>
</defs>
<path clip-path="url(#clip530)" d="
M262.551 1423.18 L2352.76 1423.18 L2352.76 47.2441 L262.551 47.2441  Z
  " fill="#ffffff" fill-rule="evenodd" fill-opacity="1"/>
<defs>
  <clipPath id="clip532">
    <rect x="262" y="47" width="2091" height="1377"/>
  </clipPath>
</defs>
<polyline clip-path="url(#clip532)" style="stroke:#000000; stroke-linecap:butt; stroke-linejoin:round; stroke-width:2; stroke-opacity:0.1; fill:none" points="
  321.708,1423.18 321.708,47.2441 
  "/>
<polyline clip-path="url(#clip532)" style="stroke:#000000; stroke-linecap:butt; stroke-linejoin:round; stroke-width:2; stroke-opacity:0.1; fill:none" points="
  512.536,1423.18 512.536,47.2441 
  "/>
<polyline clip-path="url(#clip532)" style="stroke:#000000; stroke-linecap:butt; stroke-linejoin:round; stroke-width:2; stroke-opacity:0.1; fill:none" points="
  766.974,1423.18 766.974,47.2441 
  "/>
<polyline clip-path="url(#clip532)" style="stroke:#000000; stroke-linecap:butt; stroke-linejoin:round; stroke-width:2; stroke-opacity:0.1; fill:none" points="
  1275.85,1423.18 1275.85,47.2441 
  "/>
<polyline clip-path="url(#clip532)" style="stroke:#000000; stroke-linecap:butt; stroke-linejoin:round; stroke-width:2; stroke-opacity:0.1; fill:none" points="
  2293.6,1423.18 2293.6,47.2441 
  "/>
<polyline clip-path="url(#clip530)" style="stroke:#000000; stroke-linecap:butt; stroke-linejoin:round; stroke-width:4; stroke-opacity:1; fill:none" points="
  262.551,1423.18 2352.76,1423.18 
  "/>
<polyline clip-path="url(#clip530)" style="stroke:#000000; stroke-linecap:butt; stroke-linejoin:round; stroke-width:4; stroke-opacity:1; fill:none" points="
  321.708,1423.18 321.708,1404.28 
  "/>
<polyline clip-path="url(#clip530)" style="stroke:#000000; stroke-linecap:butt; stroke-linejoin:round; stroke-width:4; stroke-opacity:1; fill:none" points="
  512.536,1423.18 512.536,1404.28 
  "/>
<polyline clip-path="url(#clip530)" style="stroke:#000000; stroke-linecap:butt; stroke-linejoin:round; stroke-width:4; stroke-opacity:1; fill:none" points="
  766.974,1423.18 766.974,1404.28 
  "/>
<polyline clip-path="url(#clip530)" style="stroke:#000000; stroke-linecap:butt; stroke-linejoin:round; stroke-width:4; stroke-opacity:1; fill:none" points="
  1275.85,1423.18 1275.85,1404.28 
  "/>
<polyline clip-path="url(#clip530)" style="stroke:#000000; stroke-linecap:butt; stroke-linejoin:round; stroke-width:4; stroke-opacity:1; fill:none" points="
  2293.6,1423.18 2293.6,1404.28 
  "/>
<path clip-path="url(#clip530)" d="M312.09 1481.64 L319.729 1481.64 L319.729 1455.28 L311.419 1456.95 L311.419 1452.69 L319.683 1451.02 L324.358 1451.02 L324.358 1481.64 L331.997 1481.64 L331.997 1485.58 L312.09 1485.58 L312.09 1481.64 Z" fill="#000000" fill-rule="evenodd" fill-opacity="1" /><path clip-path="url(#clip530)" d="M515.545 1455.09 L503.74 1473.54 L515.545 1473.54 L515.545 1455.09 M514.319 1451.02 L520.198 1451.02 L520.198 1473.54 L525.129 1473.54 L525.129 1477.43 L520.198 1477.43 L520.198 1485.58 L515.545 1485.58 L515.545 1477.43 L499.944 1477.43 L499.944 1472.92 L514.319 1451.02 Z" fill="#000000" fill-rule="evenodd" fill-opacity="1" /><path clip-path="url(#clip530)" d="M766.974 1469.17 Q763.64 1469.17 761.719 1470.95 Q759.821 1472.73 759.821 1475.86 Q759.821 1478.98 761.719 1480.77 Q763.64 1482.55 766.974 1482.55 Q770.307 1482.55 772.228 1480.77 Q774.15 1478.96 774.15 1475.86 Q774.15 1472.73 772.228 1470.95 Q770.33 1469.17 766.974 1469.17 M762.298 1467.18 Q759.289 1466.44 757.599 1464.38 Q755.932 1462.32 755.932 1459.35 Q755.932 1455.21 758.872 1452.8 Q761.835 1450.39 766.974 1450.39 Q772.136 1450.39 775.076 1452.8 Q778.015 1455.21 778.015 1459.35 Q778.015 1462.32 776.326 1464.38 Q774.659 1466.44 771.673 1467.18 Q775.052 1467.96 776.927 1470.26 Q778.826 1472.55 778.826 1475.86 Q778.826 1480.88 775.747 1483.57 Q772.691 1486.25 766.974 1486.25 Q761.256 1486.25 758.177 1483.57 Q755.122 1480.88 755.122 1475.86 Q755.122 1472.55 757.02 1470.26 Q758.918 1467.96 762.298 1467.18 M760.585 1459.79 Q760.585 1462.48 762.252 1463.98 Q763.941 1465.49 766.974 1465.49 Q769.983 1465.49 771.673 1463.98 Q773.386 1462.48 773.386 1459.79 Q773.386 1457.11 771.673 1455.6 Q769.983 1454.1 766.974 1454.1 Q763.941 1454.1 762.252 1455.6 Q760.585 1457.11 760.585 1459.79 Z" fill="#000000" fill-rule="evenodd" fill-opacity="1" /><path clip-path="url(#clip530)" d="M1250.46 1481.64 L1258.09 1481.64 L1258.09 1455.28 L1249.78 1456.95 L1249.78 1452.69 L1258.05 1451.02 L1262.72 1451.02 L1262.72 1481.64 L1270.36 1481.64 L1270.36 1485.58 L1250.46 1485.58 L1250.46 1481.64 Z" fill="#000000" fill-rule="evenodd" fill-opacity="1" /><path clip-path="url(#clip530)" d="M1290.39 1466.44 Q1287.24 1466.44 1285.39 1468.59 Q1283.56 1470.74 1283.56 1474.49 Q1283.56 1478.22 1285.39 1480.39 Q1287.24 1482.55 1290.39 1482.55 Q1293.53 1482.55 1295.36 1480.39 Q1297.21 1478.22 1297.21 1474.49 Q1297.21 1470.74 1295.36 1468.59 Q1293.53 1466.44 1290.39 1466.44 M1299.67 1451.78 L1299.67 1456.04 Q1297.91 1455.21 1296.1 1454.77 Q1294.32 1454.33 1292.56 1454.33 Q1287.93 1454.33 1285.48 1457.45 Q1283.05 1460.58 1282.7 1466.9 Q1284.07 1464.89 1286.13 1463.82 Q1288.19 1462.73 1290.66 1462.73 Q1295.87 1462.73 1298.88 1465.9 Q1301.91 1469.05 1301.91 1474.49 Q1301.91 1479.82 1298.77 1483.03 Q1295.62 1486.25 1290.39 1486.25 Q1284.39 1486.25 1281.22 1481.67 Q1278.05 1477.06 1278.05 1468.33 Q1278.05 1460.14 1281.94 1455.28 Q1285.83 1450.39 1292.38 1450.39 Q1294.14 1450.39 1295.92 1450.74 Q1297.72 1451.09 1299.67 1451.78 Z" fill="#000000" fill-rule="evenodd" fill-opacity="1" /><path clip-path="url(#clip530)" d="M2283.24 1466.95 Q2286.6 1467.66 2288.47 1469.93 Q2290.37 1472.2 2290.37 1475.53 Q2290.37 1480.65 2286.85 1483.45 Q2283.33 1486.25 2276.85 1486.25 Q2274.68 1486.25 2272.36 1485.81 Q2270.07 1485.39 2267.62 1484.54 L2267.62 1480.02 Q2269.56 1481.16 2271.87 1481.74 Q2274.19 1482.32 2276.71 1482.32 Q2281.11 1482.32 2283.4 1480.58 Q2285.72 1478.84 2285.72 1475.53 Q2285.72 1472.48 2283.56 1470.77 Q2281.43 1469.03 2277.62 1469.03 L2273.59 1469.03 L2273.59 1465.19 L2277.8 1465.19 Q2281.25 1465.19 2283.08 1463.82 Q2284.91 1462.43 2284.91 1459.84 Q2284.91 1457.18 2283.01 1455.77 Q2281.13 1454.33 2277.62 1454.33 Q2275.69 1454.33 2273.5 1454.75 Q2271.3 1455.16 2268.66 1456.04 L2268.66 1451.88 Q2271.32 1451.14 2273.63 1450.77 Q2275.97 1450.39 2278.03 1450.39 Q2283.36 1450.39 2286.46 1452.83 Q2289.56 1455.23 2289.56 1459.35 Q2289.56 1462.22 2287.92 1464.21 Q2286.27 1466.18 2283.24 1466.95 Z" fill="#000000" fill-rule="evenodd" fill-opacity="1" /><path clip-path="url(#clip530)" d="M2303.26 1481.64 L2319.58 1481.64 L2319.58 1485.58 L2297.64 1485.58 L2297.64 1481.64 Q2300.3 1478.89 2304.88 1474.26 Q2309.49 1469.61 2310.67 1468.27 Q2312.92 1465.74 2313.8 1464.01 Q2314.7 1462.25 2314.7 1460.56 Q2314.7 1457.8 2312.75 1456.07 Q2310.83 1454.33 2307.73 1454.33 Q2305.53 1454.33 2303.08 1455.09 Q2300.65 1455.86 2297.87 1457.41 L2297.87 1452.69 Q2300.69 1451.55 2303.15 1450.97 Q2305.6 1450.39 2307.64 1450.39 Q2313.01 1450.39 2316.2 1453.08 Q2319.4 1455.77 2319.4 1460.26 Q2319.4 1462.39 2318.59 1464.31 Q2317.8 1466.2 2315.69 1468.8 Q2315.12 1469.47 2312.01 1472.69 Q2308.91 1475.88 2303.26 1481.64 Z" fill="#000000" fill-rule="evenodd" fill-opacity="1" /><path clip-path="url(#clip530)" d="M1176.33 1539.37 L1167.07 1539.37 L1164.39 1550 L1173.72 1550 L1176.33 1539.37 M1171.55 1521.26 L1168.24 1534.46 L1177.54 1534.46 L1180.88 1521.26 L1185.97 1521.26 L1182.69 1534.46 L1192.63 1534.46 L1192.63 1539.37 L1181.45 1539.37 L1178.84 1550 L1188.96 1550 L1188.96 1554.87 L1177.6 1554.87 L1174.29 1568.04 L1169.2 1568.04 L1172.48 1554.87 L1163.15 1554.87 L1159.87 1568.04 L1154.75 1568.04 L1158.06 1554.87 L1148.03 1554.87 L1148.03 1550 L1159.24 1550 L1161.91 1539.37 L1151.66 1539.37 L1151.66 1534.46 L1163.15 1534.46 L1166.4 1521.26 L1171.55 1521.26 Z" fill="#000000" fill-rule="evenodd" fill-opacity="1" /><path clip-path="url(#clip530)" d="M1238.3 1536.5 Q1233.59 1536.5 1230.85 1540.19 Q1228.11 1543.85 1228.11 1550.25 Q1228.11 1556.65 1230.82 1560.34 Q1233.56 1564 1238.3 1564 Q1242.98 1564 1245.72 1560.31 Q1248.45 1556.62 1248.45 1550.25 Q1248.45 1543.92 1245.72 1540.23 Q1242.98 1536.5 1238.3 1536.5 M1238.3 1531.54 Q1245.94 1531.54 1250.3 1536.5 Q1254.66 1541.47 1254.66 1550.25 Q1254.66 1559 1250.3 1564 Q1245.94 1568.97 1238.3 1568.97 Q1230.63 1568.97 1226.27 1564 Q1221.94 1559 1221.94 1550.25 Q1221.94 1541.47 1226.27 1536.5 Q1230.63 1531.54 1238.3 1531.54 Z" fill="#000000" fill-rule="evenodd" fill-opacity="1" /><path clip-path="url(#clip530)" d="M1282.41 1518.52 L1282.41 1523.39 L1276.81 1523.39 Q1273.66 1523.39 1272.42 1524.66 Q1271.21 1525.93 1271.21 1529.24 L1271.21 1532.4 L1280.85 1532.4 L1280.85 1536.95 L1271.21 1536.95 L1271.21 1568.04 L1265.32 1568.04 L1265.32 1536.95 L1259.72 1536.95 L1259.72 1532.4 L1265.32 1532.4 L1265.32 1529.91 Q1265.32 1523.96 1268.09 1521.26 Q1270.86 1518.52 1276.88 1518.52 L1282.41 1518.52 Z" fill="#000000" fill-rule="evenodd" fill-opacity="1" /><path clip-path="url(#clip530)" d="M1308.29 1520.52 L1314.72 1520.52 L1314.72 1568.04 L1308.29 1568.04 L1308.29 1520.52 Z" fill="#000000" fill-rule="evenodd" fill-opacity="1" /><path clip-path="url(#clip530)" d="M1356.89 1546.53 L1356.89 1568.04 L1351.04 1568.04 L1351.04 1546.72 Q1351.04 1541.66 1349.06 1539.14 Q1347.09 1536.63 1343.14 1536.63 Q1338.4 1536.63 1335.66 1539.65 Q1332.93 1542.68 1332.93 1547.9 L1332.93 1568.04 L1327.04 1568.04 L1327.04 1532.4 L1332.93 1532.4 L1332.93 1537.93 Q1335.03 1534.72 1337.86 1533.13 Q1340.72 1531.54 1344.45 1531.54 Q1350.59 1531.54 1353.74 1535.36 Q1356.89 1539.14 1356.89 1546.53 Z" fill="#000000" fill-rule="evenodd" fill-opacity="1" /><path clip-path="url(#clip530)" d="M1374.37 1522.27 L1374.37 1532.4 L1386.43 1532.4 L1386.43 1536.95 L1374.37 1536.95 L1374.37 1556.3 Q1374.37 1560.66 1375.54 1561.9 Q1376.75 1563.14 1380.41 1563.14 L1386.43 1563.14 L1386.43 1568.04 L1380.41 1568.04 Q1373.63 1568.04 1371.06 1565.53 Q1368.48 1562.98 1368.48 1556.3 L1368.48 1536.95 L1364.18 1536.95 L1364.18 1532.4 L1368.48 1532.4 L1368.48 1522.27 L1374.37 1522.27 Z" fill="#000000" fill-rule="evenodd" fill-opacity="1" /><path clip-path="url(#clip530)" d="M1409.5 1541.72 Q1405.18 1541.72 1402.63 1544.68 Q1400.12 1547.64 1400.12 1552.8 Q1400.12 1557.92 1402.63 1560.91 Q1405.18 1563.87 1409.5 1563.87 Q1413.83 1563.87 1416.35 1560.91 Q1418.89 1557.92 1418.89 1552.8 Q1418.89 1547.64 1416.35 1544.68 Q1413.83 1541.72 1409.5 1541.72 M1422.27 1521.57 L1422.27 1527.43 Q1419.85 1526.28 1417.37 1525.68 Q1414.92 1525.08 1412.5 1525.08 Q1406.13 1525.08 1402.76 1529.37 Q1399.42 1533.67 1398.94 1542.36 Q1400.82 1539.59 1403.65 1538.13 Q1406.48 1536.63 1409.89 1536.63 Q1417.05 1536.63 1421.19 1540.99 Q1425.36 1545.32 1425.36 1552.8 Q1425.36 1560.12 1421.03 1564.54 Q1416.7 1568.97 1409.5 1568.97 Q1401.26 1568.97 1396.9 1562.66 Q1392.54 1556.33 1392.54 1544.33 Q1392.54 1533.06 1397.89 1526.38 Q1403.23 1519.66 1412.24 1519.66 Q1414.66 1519.66 1417.11 1520.14 Q1419.59 1520.62 1422.27 1521.57 Z" fill="#000000" fill-rule="evenodd" fill-opacity="1" /><path clip-path="url(#clip530)" d="M1454.1 1526.13 L1437.86 1551.49 L1454.1 1551.49 L1454.1 1526.13 M1452.41 1520.52 L1460.49 1520.52 L1460.49 1551.49 L1467.27 1551.49 L1467.27 1556.84 L1460.49 1556.84 L1460.49 1568.04 L1454.1 1568.04 L1454.1 1556.84 L1432.64 1556.84 L1432.64 1550.63 L1452.41 1520.52 Z" fill="#000000" fill-rule="evenodd" fill-opacity="1" /><polyline clip-path="url(#clip532)" style="stroke:#000000; stroke-linecap:butt; stroke-linejoin:round; stroke-width:2; stroke-opacity:0.1; fill:none" points="
  262.551,1384.24 2352.76,1384.24 
  "/>
<polyline clip-path="url(#clip532)" style="stroke:#000000; stroke-linecap:butt; stroke-linejoin:round; stroke-width:2; stroke-opacity:0.1; fill:none" points="
  262.551,1059.73 2352.76,1059.73 
  "/>
<polyline clip-path="url(#clip532)" style="stroke:#000000; stroke-linecap:butt; stroke-linejoin:round; stroke-width:2; stroke-opacity:0.1; fill:none" points="
  262.551,735.212 2352.76,735.212 
  "/>
<polyline clip-path="url(#clip532)" style="stroke:#000000; stroke-linecap:butt; stroke-linejoin:round; stroke-width:2; stroke-opacity:0.1; fill:none" points="
  262.551,410.699 2352.76,410.699 
  "/>
<polyline clip-path="url(#clip532)" style="stroke:#000000; stroke-linecap:butt; stroke-linejoin:round; stroke-width:2; stroke-opacity:0.1; fill:none" points="
  262.551,86.1857 2352.76,86.1857 
  "/>
<polyline clip-path="url(#clip530)" style="stroke:#000000; stroke-linecap:butt; stroke-linejoin:round; stroke-width:4; stroke-opacity:1; fill:none" points="
  262.551,1423.18 262.551,47.2441 
  "/>
<polyline clip-path="url(#clip530)" style="stroke:#000000; stroke-linecap:butt; stroke-linejoin:round; stroke-width:4; stroke-opacity:1; fill:none" points="
  262.551,1384.24 281.449,1384.24 
  "/>
<polyline clip-path="url(#clip530)" style="stroke:#000000; stroke-linecap:butt; stroke-linejoin:round; stroke-width:4; stroke-opacity:1; fill:none" points="
  262.551,1059.73 281.449,1059.73 
  "/>
<polyline clip-path="url(#clip530)" style="stroke:#000000; stroke-linecap:butt; stroke-linejoin:round; stroke-width:4; stroke-opacity:1; fill:none" points="
  262.551,735.212 281.449,735.212 
  "/>
<polyline clip-path="url(#clip530)" style="stroke:#000000; stroke-linecap:butt; stroke-linejoin:round; stroke-width:4; stroke-opacity:1; fill:none" points="
  262.551,410.699 281.449,410.699 
  "/>
<polyline clip-path="url(#clip530)" style="stroke:#000000; stroke-linecap:butt; stroke-linejoin:round; stroke-width:4; stroke-opacity:1; fill:none" points="
  262.551,86.1857 281.449,86.1857 
  "/>
<path clip-path="url(#clip530)" d="M214.607 1370.04 Q210.996 1370.04 209.167 1373.6 Q207.362 1377.14 207.362 1384.27 Q207.362 1391.38 209.167 1394.94 Q210.996 1398.49 214.607 1398.49 Q218.241 1398.49 220.047 1394.94 Q221.875 1391.38 221.875 1384.27 Q221.875 1377.14 220.047 1373.6 Q218.241 1370.04 214.607 1370.04 M214.607 1366.33 Q220.417 1366.33 223.473 1370.94 Q226.551 1375.52 226.551 1384.27 Q226.551 1393 223.473 1397.61 Q220.417 1402.19 214.607 1402.19 Q208.797 1402.19 205.718 1397.61 Q202.662 1393 202.662 1384.27 Q202.662 1375.52 205.718 1370.94 Q208.797 1366.33 214.607 1366.33 Z" fill="#000000" fill-rule="evenodd" fill-opacity="1" /><path clip-path="url(#clip530)" d="M148.311 1073.07 L164.63 1073.07 L164.63 1077.01 L142.686 1077.01 L142.686 1073.07 Q145.348 1070.32 149.931 1065.69 Q154.538 1061.03 155.718 1059.69 Q157.964 1057.17 158.843 1055.43 Q159.746 1053.67 159.746 1051.98 Q159.746 1049.23 157.802 1047.49 Q155.88 1045.76 152.778 1045.76 Q150.579 1045.76 148.126 1046.52 Q145.695 1047.28 142.917 1048.83 L142.917 1044.11 Q145.741 1042.98 148.195 1042.4 Q150.649 1041.82 152.686 1041.82 Q158.056 1041.82 161.251 1044.51 Q164.445 1047.19 164.445 1051.68 Q164.445 1053.81 163.635 1055.73 Q162.848 1057.63 160.741 1060.22 Q160.163 1060.89 157.061 1064.11 Q153.959 1067.31 148.311 1073.07 Z" fill="#000000" fill-rule="evenodd" fill-opacity="1" /><path clip-path="url(#clip530)" d="M174.491 1042.45 L192.848 1042.45 L192.848 1046.38 L178.774 1046.38 L178.774 1054.85 Q179.792 1054.51 180.811 1054.34 Q181.829 1054.16 182.848 1054.16 Q188.635 1054.16 192.014 1057.33 Q195.394 1060.5 195.394 1065.92 Q195.394 1071.5 191.922 1074.6 Q188.45 1077.68 182.13 1077.68 Q179.954 1077.68 177.686 1077.31 Q175.44 1076.94 173.033 1076.19 L173.033 1071.5 Q175.116 1072.63 177.339 1073.19 Q179.561 1073.74 182.038 1073.74 Q186.042 1073.74 188.38 1071.63 Q190.718 1069.53 190.718 1065.92 Q190.718 1062.31 188.38 1060.2 Q186.042 1058.09 182.038 1058.09 Q180.163 1058.09 178.288 1058.51 Q176.436 1058.93 174.491 1059.81 L174.491 1042.45 Z" fill="#000000" fill-rule="evenodd" fill-opacity="1" /><path clip-path="url(#clip530)" d="M214.607 1045.52 Q210.996 1045.52 209.167 1049.09 Q207.362 1052.63 207.362 1059.76 Q207.362 1066.87 209.167 1070.43 Q210.996 1073.97 214.607 1073.97 Q218.241 1073.97 220.047 1070.43 Q221.875 1066.87 221.875 1059.76 Q221.875 1052.63 220.047 1049.09 Q218.241 1045.52 214.607 1045.52 M214.607 1041.82 Q220.417 1041.82 223.473 1046.43 Q226.551 1051.01 226.551 1059.76 Q226.551 1068.49 223.473 1073.09 Q220.417 1077.68 214.607 1077.68 Q208.797 1077.68 205.718 1073.09 Q202.662 1068.49 202.662 1059.76 Q202.662 1051.01 205.718 1046.43 Q208.797 1041.82 214.607 1041.82 Z" fill="#000000" fill-rule="evenodd" fill-opacity="1" /><path clip-path="url(#clip530)" d="M144.329 717.932 L162.686 717.932 L162.686 721.867 L148.612 721.867 L148.612 730.339 Q149.63 729.992 150.649 729.83 Q151.667 729.645 152.686 729.645 Q158.473 729.645 161.852 732.816 Q165.232 735.987 165.232 741.404 Q165.232 746.983 161.76 750.085 Q158.288 753.163 151.968 753.163 Q149.792 753.163 147.524 752.793 Q145.279 752.423 142.871 751.682 L142.871 746.983 Q144.954 748.117 147.177 748.673 Q149.399 749.228 151.876 749.228 Q155.88 749.228 158.218 747.122 Q160.556 745.015 160.556 741.404 Q160.556 737.793 158.218 735.687 Q155.88 733.58 151.876 733.58 Q150.001 733.58 148.126 733.997 Q146.274 734.413 144.329 735.293 L144.329 717.932 Z" fill="#000000" fill-rule="evenodd" fill-opacity="1" /><path clip-path="url(#clip530)" d="M184.445 721.011 Q180.834 721.011 179.005 724.575 Q177.2 728.117 177.2 735.247 Q177.2 742.353 179.005 745.918 Q180.834 749.46 184.445 749.46 Q188.079 749.46 189.885 745.918 Q191.713 742.353 191.713 735.247 Q191.713 728.117 189.885 724.575 Q188.079 721.011 184.445 721.011 M184.445 717.307 Q190.255 717.307 193.311 721.913 Q196.389 726.497 196.389 735.247 Q196.389 743.973 193.311 748.58 Q190.255 753.163 184.445 753.163 Q178.635 753.163 175.556 748.58 Q172.501 743.973 172.501 735.247 Q172.501 726.497 175.556 721.913 Q178.635 717.307 184.445 717.307 Z" fill="#000000" fill-rule="evenodd" fill-opacity="1" /><path clip-path="url(#clip530)" d="M214.607 721.011 Q210.996 721.011 209.167 724.575 Q207.362 728.117 207.362 735.247 Q207.362 742.353 209.167 745.918 Q210.996 749.46 214.607 749.46 Q218.241 749.46 220.047 745.918 Q221.875 742.353 221.875 735.247 Q221.875 728.117 220.047 724.575 Q218.241 721.011 214.607 721.011 M214.607 717.307 Q220.417 717.307 223.473 721.913 Q226.551 726.497 226.551 735.247 Q226.551 743.973 223.473 748.58 Q220.417 753.163 214.607 753.163 Q208.797 753.163 205.718 748.58 Q202.662 743.973 202.662 735.247 Q202.662 726.497 205.718 721.913 Q208.797 717.307 214.607 717.307 Z" fill="#000000" fill-rule="evenodd" fill-opacity="1" /><path clip-path="url(#clip530)" d="M143.103 393.419 L165.325 393.419 L165.325 395.41 L152.778 427.979 L147.894 427.979 L159.7 397.354 L143.103 397.354 L143.103 393.419 Z" fill="#000000" fill-rule="evenodd" fill-opacity="1" /><path clip-path="url(#clip530)" d="M174.491 393.419 L192.848 393.419 L192.848 397.354 L178.774 397.354 L178.774 405.826 Q179.792 405.479 180.811 405.317 Q181.829 405.132 182.848 405.132 Q188.635 405.132 192.014 408.303 Q195.394 411.474 195.394 416.891 Q195.394 422.47 191.922 425.571 Q188.45 428.65 182.13 428.65 Q179.954 428.65 177.686 428.28 Q175.44 427.909 173.033 427.169 L173.033 422.47 Q175.116 423.604 177.339 424.159 Q179.561 424.715 182.038 424.715 Q186.042 424.715 188.38 422.608 Q190.718 420.502 190.718 416.891 Q190.718 413.28 188.38 411.173 Q186.042 409.067 182.038 409.067 Q180.163 409.067 178.288 409.484 Q176.436 409.9 174.491 410.78 L174.491 393.419 Z" fill="#000000" fill-rule="evenodd" fill-opacity="1" /><path clip-path="url(#clip530)" d="M214.607 396.498 Q210.996 396.498 209.167 400.062 Q207.362 403.604 207.362 410.734 Q207.362 417.84 209.167 421.405 Q210.996 424.946 214.607 424.946 Q218.241 424.946 220.047 421.405 Q221.875 417.84 221.875 410.734 Q221.875 403.604 220.047 400.062 Q218.241 396.498 214.607 396.498 M214.607 392.794 Q220.417 392.794 223.473 397.4 Q226.551 401.984 226.551 410.734 Q226.551 419.46 223.473 424.067 Q220.417 428.65 214.607 428.65 Q208.797 428.65 205.718 424.067 Q202.662 419.46 202.662 410.734 Q202.662 401.984 205.718 397.4 Q208.797 392.794 214.607 392.794 Z" fill="#000000" fill-rule="evenodd" fill-opacity="1" /><path clip-path="url(#clip530)" d="M114.931 99.5305 L122.57 99.5305 L122.57 73.1649 L114.26 74.8316 L114.26 70.5723 L122.524 68.9057 L127.2 68.9057 L127.2 99.5305 L134.839 99.5305 L134.839 103.466 L114.931 103.466 L114.931 99.5305 Z" fill="#000000" fill-rule="evenodd" fill-opacity="1" /><path clip-path="url(#clip530)" d="M154.283 71.9844 Q150.672 71.9844 148.843 75.5492 Q147.038 79.0908 147.038 86.2204 Q147.038 93.3268 148.843 96.8916 Q150.672 100.433 154.283 100.433 Q157.917 100.433 159.723 96.8916 Q161.552 93.3268 161.552 86.2204 Q161.552 79.0908 159.723 75.5492 Q157.917 71.9844 154.283 71.9844 M154.283 68.2807 Q160.093 68.2807 163.149 72.8871 Q166.227 77.4704 166.227 86.2204 Q166.227 94.9472 163.149 99.5537 Q160.093 104.137 154.283 104.137 Q148.473 104.137 145.394 99.5537 Q142.339 94.9472 142.339 86.2204 Q142.339 77.4704 145.394 72.8871 Q148.473 68.2807 154.283 68.2807 Z" fill="#000000" fill-rule="evenodd" fill-opacity="1" /><path clip-path="url(#clip530)" d="M184.445 71.9844 Q180.834 71.9844 179.005 75.5492 Q177.2 79.0908 177.2 86.2204 Q177.2 93.3268 179.005 96.8916 Q180.834 100.433 184.445 100.433 Q188.079 100.433 189.885 96.8916 Q191.713 93.3268 191.713 86.2204 Q191.713 79.0908 189.885 75.5492 Q188.079 71.9844 184.445 71.9844 M184.445 68.2807 Q190.255 68.2807 193.311 72.8871 Q196.389 77.4704 196.389 86.2204 Q196.389 94.9472 193.311 99.5537 Q190.255 104.137 184.445 104.137 Q178.635 104.137 175.556 99.5537 Q172.501 94.9472 172.501 86.2204 Q172.501 77.4704 175.556 72.8871 Q178.635 68.2807 184.445 68.2807 Z" fill="#000000" fill-rule="evenodd" fill-opacity="1" /><path clip-path="url(#clip530)" d="M214.607 71.9844 Q210.996 71.9844 209.167 75.5492 Q207.362 79.0908 207.362 86.2204 Q207.362 93.3268 209.167 96.8916 Q210.996 100.433 214.607 100.433 Q218.241 100.433 220.047 96.8916 Q221.875 93.3268 221.875 86.2204 Q221.875 79.0908 220.047 75.5492 Q218.241 71.9844 214.607 71.9844 M214.607 68.2807 Q220.417 68.2807 223.473 72.8871 Q226.551 77.4704 226.551 86.2204 Q226.551 94.9472 223.473 99.5537 Q220.417 104.137 214.607 104.137 Q208.797 104.137 205.718 99.5537 Q202.662 94.9472 202.662 86.2204 Q202.662 77.4704 205.718 72.8871 Q208.797 68.2807 214.607 68.2807 Z" fill="#000000" fill-rule="evenodd" fill-opacity="1" /><path clip-path="url(#clip530)" d="M16.4842 885.697 L16.4842 845.498 L21.895 845.498 L21.895 862.367 L64.0042 862.367 L64.0042 868.828 L21.895 868.828 L21.895 885.697 L16.4842 885.697 Z" fill="#000000" fill-rule="evenodd" fill-opacity="1" /><path clip-path="url(#clip530)" d="M28.3562 841.551 L28.3562 835.695 L64.0042 835.695 L64.0042 841.551 L28.3562 841.551 M14.479 841.551 L14.479 835.695 L21.895 835.695 L21.895 841.551 L14.479 841.551 Z" fill="#000000" fill-rule="evenodd" fill-opacity="1" /><path clip-path="url(#clip530)" d="M35.1993 795.686 Q31.2526 793.49 29.3747 790.434 Q27.4968 787.379 27.4968 783.241 Q27.4968 777.671 31.4117 774.648 Q35.2948 771.624 42.4881 771.624 L64.0042 771.624 L64.0042 777.512 L42.679 777.512 Q37.5546 777.512 35.072 779.326 Q32.5894 781.141 32.5894 784.864 Q32.5894 789.416 35.6131 792.058 Q38.6368 794.699 43.8567 794.699 L64.0042 794.699 L64.0042 800.588 L42.679 800.588 Q37.5228 800.588 35.072 802.402 Q32.5894 804.216 32.5894 808.004 Q32.5894 812.492 35.6449 815.133 Q38.6686 817.775 43.8567 817.775 L64.0042 817.775 L64.0042 823.663 L28.3562 823.663 L28.3562 817.775 L33.8944 817.775 Q30.616 815.77 29.0564 812.969 Q27.4968 810.168 27.4968 806.317 Q27.4968 802.434 29.4702 799.728 Q31.4436 796.991 35.1993 795.686 Z" fill="#000000" fill-rule="evenodd" fill-opacity="1" /><path clip-path="url(#clip530)" d="M44.7161 729.451 L47.5806 729.451 L47.5806 756.378 Q53.6281 755.996 56.8109 752.749 Q59.9619 749.471 59.9619 743.647 Q59.9619 740.273 59.1344 737.122 Q58.3069 733.939 56.6518 730.82 L62.1899 730.82 Q63.5267 733.971 64.227 737.281 Q64.9272 740.591 64.9272 743.997 Q64.9272 752.527 59.9619 757.524 Q54.9967 762.489 46.5303 762.489 Q37.7774 762.489 32.6531 757.778 Q27.4968 753.036 27.4968 745.015 Q27.4968 737.822 32.1438 733.652 Q36.7589 729.451 44.7161 729.451 M42.9973 735.307 Q38.1912 735.371 35.3266 738.013 Q32.4621 740.623 32.4621 744.951 Q32.4621 749.853 35.2312 752.813 Q38.0002 755.741 43.0292 756.187 L42.9973 735.307 Z" fill="#000000" fill-rule="evenodd" fill-opacity="1" /><path clip-path="url(#clip530)" d="M14.5426 685.05 Q21.8632 689.315 29.0246 691.384 Q36.186 693.453 43.5384 693.453 Q50.8908 693.453 58.1159 691.384 Q65.3091 689.283 72.5979 685.05 L72.5979 690.143 Q65.1182 694.917 57.8931 697.304 Q50.668 699.659 43.5384 699.659 Q36.4406 699.659 29.2474 697.304 Q22.0542 694.949 14.5426 690.143 L14.5426 685.05 Z" fill="#000000" fill-rule="evenodd" fill-opacity="1" /><path clip-path="url(#clip530)" d="M49.9359 674.292 L28.3562 674.292 L28.3562 668.436 L49.7131 668.436 Q54.7739 668.436 57.3202 666.462 Q59.8346 664.489 59.8346 660.542 Q59.8346 655.8 56.8109 653.063 Q53.7872 650.293 48.5673 650.293 L28.3562 650.293 L28.3562 644.437 L64.0042 644.437 L64.0042 650.293 L58.5296 650.293 Q61.7762 652.426 63.3676 655.259 Q64.9272 658.06 64.9272 661.784 Q64.9272 667.926 61.1078 671.109 Q57.2883 674.292 49.9359 674.292 M27.4968 659.556 L27.4968 659.556 Z" fill="#000000" fill-rule="evenodd" fill-opacity="1" /><path clip-path="url(#clip530)" d="M29.4065 609.648 L34.9447 609.648 Q33.6716 612.131 33.035 614.805 Q32.3984 617.478 32.3984 620.343 Q32.3984 624.703 33.7352 626.899 Q35.072 629.064 37.7456 629.064 Q39.7826 629.064 40.9603 627.504 Q42.1061 625.945 43.1565 621.234 L43.6021 619.229 Q44.9389 612.99 47.3897 610.38 Q49.8086 607.739 54.1691 607.739 Q59.1344 607.739 62.0308 611.685 Q64.9272 615.6 64.9272 622.475 Q64.9272 625.34 64.3543 628.459 Q63.8132 631.546 62.6992 634.984 L56.6518 634.984 Q58.3387 631.737 59.198 628.586 Q60.0256 625.435 60.0256 622.348 Q60.0256 618.21 58.6251 615.982 Q57.1929 613.754 54.6147 613.754 Q52.2276 613.754 50.9545 615.378 Q49.6813 616.969 48.5037 622.412 L48.0262 624.449 Q46.8804 629.891 44.5251 632.31 Q42.138 634.729 38.0002 634.729 Q32.9713 634.729 30.2341 631.164 Q27.4968 627.6 27.4968 621.043 Q27.4968 617.797 27.9743 614.932 Q28.4517 612.067 29.4065 609.648 Z" fill="#000000" fill-rule="evenodd" fill-opacity="1" /><path clip-path="url(#clip530)" d="M14.5426 599.336 L14.5426 594.243 Q22.0542 589.469 29.2474 587.114 Q36.4406 584.727 43.5384 584.727 Q50.668 584.727 57.8931 587.114 Q65.1182 589.469 72.5979 594.243 L72.5979 599.336 Q65.3091 595.103 58.1159 593.034 Q50.8908 590.933 43.5384 590.933 Q36.186 590.933 29.0246 593.034 Q21.8632 595.103 14.5426 599.336 Z" fill="#000000" fill-rule="evenodd" fill-opacity="1" /><polyline clip-path="url(#clip532)" style="stroke:#009af9; stroke-linecap:butt; stroke-linejoin:round; stroke-width:12; stroke-opacity:1; fill:none" points="
  321.708,1365.93 385.317,1359.26 512.536,1356.13 766.974,1352.82 1275.85,1344.7 2293.6,1329.29 
  "/>
<polyline clip-path="url(#clip532)" style="stroke:#e26f46; stroke-linecap:butt; stroke-linejoin:round; stroke-width:12; stroke-opacity:1; fill:none" points="
  321.708,1319.93 385.317,1276.66 512.536,1205.76 766.974,1051.13 1275.85,771.26 2293.6,144.111 
  "/>
<path clip-path="url(#clip530)" d="
M332.225 248.629 L794.168 248.629 L794.168 93.1086 L332.225 93.1086  Z
  " fill="#ffffff" fill-rule="evenodd" fill-opacity="1"/>
<polyline clip-path="url(#clip530)" style="stroke:#000000; stroke-linecap:butt; stroke-linejoin:round; stroke-width:4; stroke-opacity:1; fill:none" points="
  332.225,248.629 794.168,248.629 794.168,93.1086 332.225,93.1086 332.225,248.629 
  "/>
<polyline clip-path="url(#clip530)" style="stroke:#009af9; stroke-linecap:butt; stroke-linejoin:round; stroke-width:4; stroke-opacity:1; fill:none" points="
  355.449,144.949 494.796,144.949 
  "/>
<path clip-path="url(#clip530)" d="M545.891 130.331 L545.891 135.261 Q543.53 133.062 540.845 131.974 Q538.183 130.886 535.173 130.886 Q529.247 130.886 526.099 134.52 Q522.951 138.132 522.951 144.983 Q522.951 151.812 526.099 155.446 Q529.247 159.057 535.173 159.057 Q538.183 159.057 540.845 157.969 Q543.53 156.881 545.891 154.682 L545.891 159.567 Q543.437 161.233 540.683 162.067 Q537.951 162.9 534.896 162.9 Q527.048 162.9 522.535 158.108 Q518.021 153.293 518.021 144.983 Q518.021 136.65 522.535 131.858 Q527.048 127.044 534.896 127.044 Q537.997 127.044 540.729 127.877 Q543.484 128.687 545.891 130.331 Z" fill="#000000" fill-rule="evenodd" fill-opacity="1" /><polyline clip-path="url(#clip530)" style="stroke:#e26f46; stroke-linecap:butt; stroke-linejoin:round; stroke-width:4; stroke-opacity:1; fill:none" points="
  355.449,196.789 494.796,196.789 
  "/>
<path clip-path="url(#clip530)" d="M523.345 188.143 L527.604 188.143 L527.604 214.532 Q527.604 219.485 525.706 221.707 Q523.831 223.93 519.641 223.93 L518.021 223.93 L518.021 220.319 L519.155 220.319 Q521.585 220.319 522.465 219.184 Q523.345 218.073 523.345 214.532 L523.345 188.143 M523.345 178.05 L527.604 178.05 L527.604 183.444 L523.345 183.444 L523.345 178.05 Z" fill="#000000" fill-rule="evenodd" fill-opacity="1" /><path clip-path="url(#clip530)" d="M536.076 203.837 L536.076 188.143 L540.335 188.143 L540.335 203.675 Q540.335 207.356 541.771 209.208 Q543.206 211.036 546.076 211.036 Q549.525 211.036 551.516 208.837 Q553.53 206.638 553.53 202.842 L553.53 188.143 L557.789 188.143 L557.789 214.069 L553.53 214.069 L553.53 210.087 Q551.979 212.448 549.919 213.606 Q547.882 214.74 545.173 214.74 Q540.706 214.74 538.391 211.962 Q536.076 209.184 536.076 203.837 M546.794 187.518 L546.794 187.518 Z" fill="#000000" fill-rule="evenodd" fill-opacity="1" /><path clip-path="url(#clip530)" d="M566.562 178.05 L570.821 178.05 L570.821 214.069 L566.562 214.069 L566.562 178.05 Z" fill="#000000" fill-rule="evenodd" fill-opacity="1" /><path clip-path="url(#clip530)" d="M579.733 188.143 L583.993 188.143 L583.993 214.069 L579.733 214.069 L579.733 188.143 M579.733 178.05 L583.993 178.05 L583.993 183.444 L579.733 183.444 L579.733 178.05 Z" fill="#000000" fill-rule="evenodd" fill-opacity="1" /><path clip-path="url(#clip530)" d="M604.687 201.036 Q599.525 201.036 597.534 202.217 Q595.543 203.397 595.543 206.245 Q595.543 208.513 597.025 209.856 Q598.53 211.175 601.099 211.175 Q604.641 211.175 606.77 208.675 Q608.923 206.152 608.923 201.985 L608.923 201.036 L604.687 201.036 M613.182 199.277 L613.182 214.069 L608.923 214.069 L608.923 210.133 Q607.465 212.495 605.289 213.629 Q603.113 214.74 599.965 214.74 Q595.983 214.74 593.622 212.518 Q591.284 210.272 591.284 206.522 Q591.284 202.147 594.201 199.925 Q597.141 197.703 602.951 197.703 L608.923 197.703 L608.923 197.286 Q608.923 194.347 606.979 192.749 Q605.057 191.129 601.562 191.129 Q599.34 191.129 597.233 191.661 Q595.127 192.194 593.182 193.259 L593.182 189.323 Q595.52 188.421 597.719 187.981 Q599.918 187.518 602.002 187.518 Q607.627 187.518 610.404 190.434 Q613.182 193.351 613.182 199.277 Z" fill="#000000" fill-rule="evenodd" fill-opacity="1" /><path clip-path="url(#clip530)" d="M619.803 199.184 L632.279 199.184 L632.279 202.981 L619.803 202.981 L619.803 199.184 Z" fill="#000000" fill-rule="evenodd" fill-opacity="1" /><path clip-path="url(#clip530)" d="M639.062 178.05 L643.321 178.05 L643.321 214.069 L639.062 214.069 L639.062 178.05 Z" fill="#000000" fill-rule="evenodd" fill-opacity="1" /><path clip-path="url(#clip530)" d="M652.233 188.143 L656.492 188.143 L656.492 214.069 L652.233 214.069 L652.233 188.143 M652.233 178.05 L656.492 178.05 L656.492 183.444 L652.233 183.444 L652.233 178.05 Z" fill="#000000" fill-rule="evenodd" fill-opacity="1" /><path clip-path="url(#clip530)" d="M684.015 201.129 Q684.015 196.43 682.071 193.768 Q680.149 191.083 676.77 191.083 Q673.39 191.083 671.446 193.768 Q669.525 196.43 669.525 201.129 Q669.525 205.828 671.446 208.513 Q673.39 211.175 676.77 211.175 Q680.149 211.175 682.071 208.513 Q684.015 205.828 684.015 201.129 M669.525 192.078 Q670.867 189.763 672.904 188.652 Q674.964 187.518 677.811 187.518 Q682.534 187.518 685.473 191.268 Q688.436 195.018 688.436 201.129 Q688.436 207.24 685.473 210.99 Q682.534 214.74 677.811 214.74 Q674.964 214.74 672.904 213.629 Q670.867 212.495 669.525 210.18 L669.525 214.069 L665.242 214.069 L665.242 178.05 L669.525 178.05 L669.525 192.078 Z" fill="#000000" fill-rule="evenodd" fill-opacity="1" /><path clip-path="url(#clip530)" d="M695.057 203.837 L695.057 188.143 L699.316 188.143 L699.316 203.675 Q699.316 207.356 700.751 209.208 Q702.186 211.036 705.057 211.036 Q708.506 211.036 710.497 208.837 Q712.51 206.638 712.51 202.842 L712.51 188.143 L716.77 188.143 L716.77 214.069 L712.51 214.069 L712.51 210.087 Q710.959 212.448 708.899 213.606 Q706.862 214.74 704.154 214.74 Q699.686 214.74 697.372 211.962 Q695.057 209.184 695.057 203.837 M705.774 187.518 L705.774 187.518 Z" fill="#000000" fill-rule="evenodd" fill-opacity="1" /><path clip-path="url(#clip530)" d="M722.487 188.143 L727.001 188.143 L735.103 209.902 L743.205 188.143 L747.719 188.143 L737.996 214.069 L732.209 214.069 L722.487 188.143 Z" fill="#000000" fill-rule="evenodd" fill-opacity="1" /></svg>
